0
SECTION
2
HEADER
9
$INSUNITS
70
4
9
$ACADVER
1
AC1014
9
$HANDSEED
5
FFFF
0
ENDSEC
0
SECTION
2
TABLES
0
TABLE
2
VPORT
5
8
100
AcDbSymbolTable
0
ENDTAB
0
TABLE
2
LTYPE
5
5
100
AcDbSymbolTable
0
LTYPE
5
14
100
AcDbSymbolTableRecord
100
AcDbLinetypeTableRecord
2
BYBLOCK
70
0
0
LTYPE
5
15
100
AcDbSymbolTableRecord
100
AcDbLinetypeTableRecord
2
BYLAYER
70
0
0
ENDTAB
0
TABLE
2
LAYER
5
2
100
AcDbSymbolTable
70
2
0
LAYER
5
50
100
AcDbSymbolTableRecord
100
AcDbLayerTableRecord
2
0
70
0
6
CONTINUOUS
0
ENDTAB
0
TABLE
2
STYLE
5
3
100
AcDbSymbolTable
70
1
0
STYLE
5
11
100
AcDbSymbolTableRecord
100
AcDbTextStyleTableRecord
2
STANDARD
70
0
0
ENDTAB
0
TABLE
2
VIEW
5
6
100
AcDbSymbolTable
70
0
0
ENDTAB
0
TABLE
2
UCS
5
7
100
AcDbSymbolTable
70
0
0
ENDTAB
0
TABLE
2
APPID
5
9
100
AcDbSymbolTable
70
2
0
APPID
5
12
100
AcDbSymbolTableRecord
100
AcDbRegAppTableRecord
2
ACAD
70
0
0
ENDTAB
0
TABLE
2
DIMSTYLE
5
A
100
AcDbSymbolTable
70
1
0
ENDTAB
0
TABLE
2
BLOCK_RECORD
5
1
100
AcDbSymbolTable
70
1
0
BLOCK_RECORD
5
1F
100
AcDbSymbolTableRecord
100
AcDbBlockTableRecord
2
*MODEL_SPACE
0
BLOCK_RECORD
5
1B
100
AcDbSymbolTableRecord
100
AcDbBlockTableRecord
2
*PAPER_SPACE
0
ENDTAB
0
ENDSEC
0
SECTION
2
BLOCKS
0
BLOCK
5
20
100
AcDbEntity
100
AcDbBlockBegin
2
*MODEL_SPACE
0
ENDBLK
5
21
100
AcDbEntity
100
AcDbBlockEnd
0
BLOCK
5
1C
100
AcDbEntity
100
AcDbBlockBegin
2
*PAPER_SPACE
0
ENDBLK
5
1D
100
AcDbEntity
100
AcDbBlockEnd
0
ENDSEC
0
SECTION
2
ENTITIES
0
LWPOLYLINE
5
100
100
AcDbEntity
8
0
100
AcDbPolyline
90
16
70
1
43
0.0
10
0
20
0
10
5
20
0
10
243.10000000000002
20
0
10
243.10000000000002
20
-52.5
10
254.10000000000002
20
-52.5
10
254.10000000000002
20
-3.5123535923246734e-15
10
263.60000000000002
20
-1.8318679906315083e-14
10
263.60000000000002
20
-5.0000000000000178
10
268.60000000000002
20
-5
10
268.60000000000002
20
-101.25
10
268.60000000000002
20
-106.25
10
263.60000000000002
20
-106.24999999999999
10
4.9999999999999982
20
-106.25000000000001
10
-5.8936127208966385e-15
20
-106.25000000000001
10
-5.8936127208966385e-15
20
-101.25000000000001
10
0
20
-5
0
LINE
5
101
100
AcDbEntity
8
0
100
AcDbLine
10
5
20
0
30
0
11
5
21
-5
31
0
0
LINE
5
102
100
AcDbEntity
8
0
100
AcDbLine
10
5
20
-5
30
0
11
0
21
-5
31
0
0
LINE
5
103
100
AcDbEntity
8
0
100
AcDbLine
10
263.60000000000002
20
-1.8276068950617733e-14
30
0
11
268.60000000000002
21
-1.6254154167706225e-11
31
0
0
LINE
5
104
100
AcDbEntity
8
0
100
AcDbLine
10
268.60000000000002
20
-1.6254154167706225e-11
30
0
11
268.60000000000002
21
-5
31
0
0
LINE
5
105
100
AcDbEntity
8
0
100
AcDbLine
10
-5.8936127208966385e-15
20
-101.25000000000001
30
0
11
4.9999999999999938
21
-101.25000000000001
31
0
0
LINE
5
106
100
AcDbEntity
8
0
100
AcDbLine
10
4.9999999999999938
20
-101.25000000000001
30
0
11
4.9999999999999982
21
-106.25000000000001
31
0
0
LWPOLYLINE
5
107
100
AcDbEntity
8
0
100
AcDbPolyline
90
4
70
1
43
0.0
10
5
20
-5
10
24.050000000000004
20
-5
10
24.050000000000004
20
-24.050000000000004
10
5
20
-24.050000000000004
0
LWPOLYLINE
5
108
100
AcDbEntity
8
0
100
AcDbPolyline
90
4
70
1
43
0.0
10
43.100000000000009
20
-5
10
43.100000000000009
20
-24.050000000000004
10
24.050000000000004
20
-24.050000000000004
10
24.050000000000004
20
-5
0
LWPOLYLINE
5
109
100
AcDbEntity
8
0
100
AcDbPolyline
90
4
70
1
43
0.0
10
62.150000000000006
20
-5
10
62.150000000000006
20
-24.050000000000004
10
43.100000000000009
20
-24.050000000000004
10
43.100000000000009
20
-5
0
LWPOLYLINE
5
110
100
AcDbEntity
8
0
100
AcDbPolyline
90
4
70
1
43
0.0
10
81.200000000000017
20
-5
10
81.200000000000017
20
-24.050000000000004
10
62.150000000000006
20
-24.050000000000004
10
62.150000000000006
20
-5
0
LWPOLYLINE
5
111
100
AcDbEntity
8
0
100
AcDbPolyline
90
4
70
1
43
0.0
10
100.25000000000003
20
-5
10
100.25000000000003
20
-24.050000000000004
10
81.200000000000017
20
-24.050000000000004
10
81.200000000000017
20
-5
0
LWPOLYLINE
5
112
100
AcDbEntity
8
0
100
AcDbPolyline
90
4
70
1
43
0.0
10
119.30000000000004
20
-5
10
119.30000000000004
20
-24.050000000000004
10
100.25000000000003
20
-24.050000000000004
10
100.25000000000003
20
-5
0
LWPOLYLINE
5
113
100
AcDbEntity
8
0
100
AcDbPolyline
90
4
70
1
43
0.0
10
138.35000000000002
20
-5
10
138.35000000000002
20
-24.050000000000004
10
119.30000000000001
20
-24.050000000000004
10
119.30000000000001
20
-5
0
LWPOLYLINE
5
114
100
AcDbEntity
8
0
100
AcDbPolyline
90
4
70
1
43
0.0
10
157.40000000000003
20
-5
10
157.40000000000003
20
-24.050000000000004
10
138.35000000000002
20
-24.050000000000004
10
138.35000000000002
20
-5
0
LWPOLYLINE
5
115
100
AcDbEntity
8
0
100
AcDbPolyline
90
4
70
1
43
0.0
10
176.45000000000005
20
-5
10
176.45000000000005
20
-24.050000000000004
10
157.40000000000003
20
-24.050000000000004
10
157.40000000000003
20
-5
0
LWPOLYLINE
5
116
100
AcDbEntity
8
0
100
AcDbPolyline
90
4
70
1
43
0.0
10
195.50000000000006
20
-5
10
195.50000000000006
20
-24.050000000000004
10
176.45000000000005
20
-24.050000000000004
10
176.45000000000005
20
-5
0
LWPOLYLINE
5
117
100
AcDbEntity
8
0
100
AcDbPolyline
90
4
70
1
43
0.0
10
214.55000000000007
20
-5
10
214.55000000000007
20
-24.050000000000004
10
195.50000000000006
20
-24.050000000000004
10
195.50000000000006
20
-5
0
LWPOLYLINE
5
118
100
AcDbEntity
8
0
100
AcDbPolyline
90
4
70
1
43
0.0
10
233.60000000000002
20
-5
10
233.60000000000002
20
-24.050000000000004
10
214.55000000000001
20
-24.050000000000004
10
214.55000000000001
20
-5
0
LWPOLYLINE
5
119
100
AcDbEntity
8
0
100
AcDbPolyline
90
4
70
1
43
0.0
10
24.050000000000004
20
-24.050000000000004
10
24.050000000000004
20
-43.100000000000009
10
5
20
-43.100000000000009
10
5
20
-24.050000000000004
0
LWPOLYLINE
5
120
100
AcDbEntity
8
0
100
AcDbPolyline
90
4
70
1
43
0.0
10
43.100000000000009
20
-24.050000000000004
10
43.100000000000009
20
-43.100000000000009
10
24.050000000000004
20
-43.100000000000009
10
24.050000000000004
20
-24.050000000000004
0
LWPOLYLINE
5
121
100
AcDbEntity
8
0
100
AcDbPolyline
90
4
70
1
43
0.0
10
62.150000000000006
20
-24.050000000000004
10
62.150000000000006
20
-43.100000000000009
10
43.100000000000009
20
-43.100000000000009
10
43.100000000000009
20
-24.050000000000004
0
LWPOLYLINE
5
122
100
AcDbEntity
8
0
100
AcDbPolyline
90
4
70
1
43
0.0
10
81.200000000000017
20
-24.050000000000004
10
81.200000000000017
20
-43.100000000000009
10
62.150000000000006
20
-43.100000000000009
10
62.150000000000006
20
-24.050000000000004
0
LWPOLYLINE
5
123
100
AcDbEntity
8
0
100
AcDbPolyline
90
4
70
1
43
0.0
10
100.25000000000003
20
-24.050000000000004
10
100.25000000000003
20
-43.100000000000009
10
81.200000000000017
20
-43.100000000000009
10
81.200000000000017
20
-24.050000000000004
0
LWPOLYLINE
5
124
100
AcDbEntity
8
0
100
AcDbPolyline
90
4
70
1
43
0.0
10
119.30000000000004
20
-24.050000000000004
10
119.30000000000004
20
-43.100000000000009
10
100.25000000000003
20
-43.100000000000009
10
100.25000000000003
20
-24.050000000000004
0
LWPOLYLINE
5
125
100
AcDbEntity
8
0
100
AcDbPolyline
90
4
70
1
43
0.0
10
138.35000000000002
20
-24.050000000000004
10
138.35000000000002
20
-43.100000000000009
10
119.30000000000001
20
-43.100000000000009
10
119.30000000000001
20
-24.050000000000004
0
LWPOLYLINE
5
126
100
AcDbEntity
8
0
100
AcDbPolyline
90
4
70
1
43
0.0
10
157.40000000000003
20
-24.050000000000004
10
157.40000000000003
20
-43.100000000000009
10
138.35000000000002
20
-43.100000000000009
10
138.35000000000002
20
-24.050000000000004
0
LWPOLYLINE
5
127
100
AcDbEntity
8
0
100
AcDbPolyline
90
4
70
1
43
0.0
10
176.45000000000005
20
-24.050000000000004
10
176.45000000000005
20
-43.100000000000009
10
157.40000000000003
20
-43.100000000000009
10
157.40000000000003
20
-24.050000000000004
0
LWPOLYLINE
5
128
100
AcDbEntity
8
0
100
AcDbPolyline
90
4
70
1
43
0.0
10
195.50000000000006
20
-24.050000000000004
10
195.50000000000006
20
-43.100000000000009
10
176.45000000000005
20
-43.100000000000009
10
176.45000000000005
20
-24.050000000000004
0
LWPOLYLINE
5
129
100
AcDbEntity
8
0
100
AcDbPolyline
90
4
70
1
43
0.0
10
214.55000000000007
20
-24.050000000000004
10
214.55000000000007
20
-43.100000000000009
10
195.50000000000006
20
-43.100000000000009
10
195.50000000000006
20
-24.050000000000004
0
LWPOLYLINE
5
130
100
AcDbEntity
8
0
100
AcDbPolyline
90
4
70
1
43
0.0
10
233.60000000000002
20
-24.050000000000004
10
233.60000000000002
20
-43.100000000000009
10
214.55000000000001
20
-43.100000000000009
10
214.55000000000001
20
-24.050000000000004
0
LWPOLYLINE
5
131
100
AcDbEntity
8
0
100
AcDbPolyline
90
4
70
1
43
0.0
10
24.050000000000004
20
-43.100000000000009
10
24.050000000000004
20
-62.150000000000006
10
5
20
-62.150000000000006
10
5
20
-43.100000000000009
0
LWPOLYLINE
5
132
100
AcDbEntity
8
0
100
AcDbPolyline
90
4
70
1
43
0.0
10
43.100000000000009
20
-43.100000000000009
10
43.100000000000009
20
-62.150000000000006
10
24.050000000000004
20
-62.150000000000006
10
24.050000000000004
20
-43.100000000000009
0
LWPOLYLINE
5
133
100
AcDbEntity
8
0
100
AcDbPolyline
90
4
70
1
43
0.0
10
62.150000000000006
20
-43.100000000000009
10
62.150000000000006
20
-62.150000000000006
10
43.100000000000009
20
-62.150000000000006
10
43.100000000000009
20
-43.100000000000009
0
LWPOLYLINE
5
134
100
AcDbEntity
8
0
100
AcDbPolyline
90
4
70
1
43
0.0
10
81.200000000000017
20
-43.100000000000009
10
81.200000000000017
20
-62.150000000000006
10
62.150000000000006
20
-62.150000000000006
10
62.150000000000006
20
-43.100000000000009
0
LWPOLYLINE
5
135
100
AcDbEntity
8
0
100
AcDbPolyline
90
4
70
1
43
0.0
10
100.25000000000003
20
-43.100000000000009
10
100.25000000000003
20
-62.150000000000006
10
81.200000000000017
20
-62.150000000000006
10
81.200000000000017
20
-43.100000000000009
0
LWPOLYLINE
5
136
100
AcDbEntity
8
0
100
AcDbPolyline
90
4
70
1
43
0.0
10
119.30000000000004
20
-43.100000000000009
10
119.30000000000004
20
-62.150000000000006
10
100.25000000000003
20
-62.150000000000006
10
100.25000000000003
20
-43.100000000000009
0
LWPOLYLINE
5
137
100
AcDbEntity
8
0
100
AcDbPolyline
90
4
70
1
43
0.0
10
138.35000000000002
20
-43.100000000000009
10
138.35000000000002
20
-62.150000000000006
10
119.30000000000001
20
-62.150000000000006
10
119.30000000000001
20
-43.100000000000009
0
LWPOLYLINE
5
138
100
AcDbEntity
8
0
100
AcDbPolyline
90
4
70
1
43
0.0
10
157.40000000000003
20
-43.100000000000009
10
157.40000000000003
20
-62.150000000000006
10
138.35000000000002
20
-62.150000000000006
10
138.35000000000002
20
-43.100000000000009
0
LWPOLYLINE
5
139
100
AcDbEntity
8
0
100
AcDbPolyline
90
4
70
1
43
0.0
10
176.45000000000005
20
-43.100000000000009
10
176.45000000000005
20
-62.150000000000006
10
157.40000000000003
20
-62.150000000000006
10
157.40000000000003
20
-43.100000000000009
0
LWPOLYLINE
5
140
100
AcDbEntity
8
0
100
AcDbPolyline
90
4
70
1
43
0.0
10
195.50000000000006
20
-43.100000000000009
10
195.50000000000006
20
-62.150000000000006
10
176.45000000000005
20
-62.150000000000006
10
176.45000000000005
20
-43.100000000000009
0
LWPOLYLINE
5
141
100
AcDbEntity
8
0
100
AcDbPolyline
90
4
70
1
43
0.0
10
214.55000000000007
20
-43.100000000000009
10
214.55000000000007
20
-62.150000000000006
10
195.50000000000006
20
-62.150000000000006
10
195.50000000000006
20
-43.100000000000009
0
LWPOLYLINE
5
142
100
AcDbEntity
8
0
100
AcDbPolyline
90
4
70
1
43
0.0
10
233.60000000000002
20
-43.100000000000009
10
233.60000000000002
20
-62.150000000000006
10
214.55000000000001
20
-62.150000000000006
10
214.55000000000001
20
-43.100000000000009
0
LWPOLYLINE
5
143
100
AcDbEntity
8
0
100
AcDbPolyline
90
4
70
1
43
0.0
10
24.050000000000004
20
-62.150000000000006
10
24.050000000000004
20
-81.200000000000017
10
5
20
-81.200000000000017
10
5
20
-62.150000000000006
0
LWPOLYLINE
5
144
100
AcDbEntity
8
0
100
AcDbPolyline
90
4
70
1
43
0.0
10
43.100000000000009
20
-62.150000000000006
10
43.100000000000009
20
-81.200000000000017
10
24.050000000000004
20
-81.200000000000017
10
24.050000000000004
20
-62.150000000000006
0
LWPOLYLINE
5
145
100
AcDbEntity
8
0
100
AcDbPolyline
90
4
70
1
43
0.0
10
62.150000000000006
20
-62.150000000000006
10
62.150000000000006
20
-81.200000000000017
10
43.100000000000009
20
-81.200000000000017
10
43.100000000000009
20
-62.150000000000006
0
LWPOLYLINE
5
146
100
AcDbEntity
8
0
100
AcDbPolyline
90
4
70
1
43
0.0
10
81.200000000000017
20
-62.150000000000006
10
81.200000000000017
20
-81.200000000000017
10
62.150000000000006
20
-81.200000000000017
10
62.150000000000006
20
-62.150000000000006
0
LWPOLYLINE
5
147
100
AcDbEntity
8
0
100
AcDbPolyline
90
4
70
1
43
0.0
10
100.25000000000003
20
-62.150000000000006
10
100.25000000000003
20
-81.200000000000017
10
81.200000000000017
20
-81.200000000000017
10
81.200000000000017
20
-62.150000000000006
0
LWPOLYLINE
5
148
100
AcDbEntity
8
0
100
AcDbPolyline
90
4
70
1
43
0.0
10
119.30000000000004
20
-62.150000000000006
10
119.30000000000004
20
-81.200000000000017
10
100.25000000000003
20
-81.200000000000017
10
100.25000000000003
20
-62.150000000000006
0
LWPOLYLINE
5
149
100
AcDbEntity
8
0
100
AcDbPolyline
90
4
70
1
43
0.0
10
138.35000000000002
20
-62.150000000000006
10
138.35000000000002
20
-81.200000000000017
10
119.30000000000001
20
-81.200000000000017
10
119.30000000000001
20
-62.150000000000006
0
LWPOLYLINE
5
150
100
AcDbEntity
8
0
100
AcDbPolyline
90
4
70
1
43
0.0
10
157.40000000000003
20
-62.150000000000006
10
157.40000000000003
20
-81.200000000000017
10
138.35000000000002
20
-81.200000000000017
10
138.35000000000002
20
-62.150000000000006
0
LWPOLYLINE
5
151
100
AcDbEntity
8
0
100
AcDbPolyline
90
4
70
1
43
0.0
10
176.45000000000005
20
-62.150000000000006
10
176.45000000000005
20
-81.200000000000017
10
157.40000000000003
20
-81.200000000000017
10
157.40000000000003
20
-62.150000000000006
0
LWPOLYLINE
5
152
100
AcDbEntity
8
0
100
AcDbPolyline
90
4
70
1
43
0.0
10
195.50000000000006
20
-62.150000000000006
10
195.50000000000006
20
-81.200000000000017
10
176.45000000000005
20
-81.200000000000017
10
176.45000000000005
20
-62.150000000000006
0
LWPOLYLINE
5
153
100
AcDbEntity
8
0
100
AcDbPolyline
90
4
70
1
43
0.0
10
214.55000000000007
20
-62.150000000000006
10
214.55000000000007
20
-81.200000000000017
10
195.50000000000006
20
-81.200000000000017
10
195.50000000000006
20
-62.150000000000006
0
LWPOLYLINE
5
154
100
AcDbEntity
8
0
100
AcDbPolyline
90
4
70
1
43
0.0
10
233.60000000000002
20
-62.150000000000006
10
233.60000000000002
20
-81.200000000000017
10
214.55000000000001
20
-81.200000000000017
10
214.55000000000001
20
-62.150000000000006
0
LINE
5
155
100
AcDbEntity
8
0
100
AcDbLine
10
5
20
-5
30
0
11
24.050000000000004
21
-24.050000000000004
31
0
0
LINE
5
156
100
AcDbEntity
8
0
100
AcDbLine
10
24.050000000000004
20
-5
30
0
11
5
21
-24.050000000000004
31
0
0
LINE
5
157
100
AcDbEntity
8
0
100
AcDbLine
10
268.60000000000002
20
-101.25
30
0
11
263.60000000000002
21
-101.24999999999999
31
0
0
LINE
5
158
100
AcDbEntity
8
0
100
AcDbLine
10
263.60000000000002
20
-101.24999999999999
30
0
11
263.60000000000002
21
-106.24999999999999
31
0
0
ARC
5
159
100
AcDbEntity
8
0
100
AcDbCircle
10
263.60000000000002
20
-101.25
30
0
40
5
210
0
220
0
230
1
100
AcDbArc
50
-89.999999999999332
51
0
0
ARC
5
160
100
AcDbEntity
8
0
100
AcDbCircle
10
4.9999999999999929
20
-101.25000000000001
30
0
40
4.9999999999999991
210
0
220
0
230
1
100
AcDbArc
50
180
51
270
0
ARC
5
161
100
AcDbEntity
8
0
100
AcDbCircle
10
5
20
-5
30
0
40
5
210
0
220
-0
230
1
100
AcDbArc
50
90
51
180
0
ARC
5
162
100
AcDbEntity
8
0
100
AcDbCircle
10
263.59999999999974
20
-5.0000000000000178
30
0
40
5
210
0
220
-0
230
1
100
AcDbArc
50
0
51
89.999999999996746
0
LWPOLYLINE
5
163
100
AcDbEntity
8
0
100
AcDbPolyline
90
4
70
1
43
0.0
10
24.050000000000004
20
-81.200000000000017
10
24.050000000000004
20
-100.25000000000003
10
5
20
-100.25000000000003
10
5
20
-81.200000000000017
0
LWPOLYLINE
5
164
100
AcDbEntity
8
0
100
AcDbPolyline
90
4
70
1
43
0.0
10
43.100000000000009
20
-81.200000000000017
10
43.100000000000009
20
-100.25000000000003
10
24.050000000000004
20
-100.25000000000003
10
24.050000000000004
20
-81.200000000000017
0
LWPOLYLINE
5
165
100
AcDbEntity
8
0
100
AcDbPolyline
90
4
70
1
43
0.0
10
62.150000000000006
20
-81.200000000000017
10
62.150000000000006
20
-100.25000000000003
10
43.100000000000009
20
-100.25000000000003
10
43.100000000000009
20
-81.200000000000017
0
LWPOLYLINE
5
166
100
AcDbEntity
8
0
100
AcDbPolyline
90
4
70
1
43
0.0
10
81.200000000000017
20
-81.200000000000017
10
81.200000000000017
20
-100.25000000000003
10
62.150000000000006
20
-100.25000000000003
10
62.150000000000006
20
-81.200000000000017
0
LWPOLYLINE
5
167
100
AcDbEntity
8
0
100
AcDbPolyline
90
4
70
1
43
0.0
10
100.25000000000003
20
-81.200000000000017
10
100.25000000000003
20
-100.25000000000003
10
81.200000000000017
20
-100.25000000000003
10
81.200000000000017
20
-81.200000000000017
0
LWPOLYLINE
5
168
100
AcDbEntity
8
0
100
AcDbPolyline
90
4
70
1
43
0.0
10
119.30000000000004
20
-81.200000000000017
10
119.30000000000004
20
-100.25000000000003
10
100.25000000000003
20
-100.25000000000003
10
100.25000000000003
20
-81.200000000000017
0
LWPOLYLINE
5
169
100
AcDbEntity
8
0
100
AcDbPolyline
90
4
70
1
43
0.0
10
138.35000000000002
20
-81.200000000000017
10
138.35000000000002
20
-100.25000000000003
10
119.30000000000001
20
-100.25000000000003
10
119.30000000000001
20
-81.200000000000017
0
LWPOLYLINE
5
170
100
AcDbEntity
8
0
100
AcDbPolyline
90
4
70
1
43
0.0
10
157.40000000000003
20
-81.200000000000017
10
157.40000000000003
20
-100.25000000000003
10
138.35000000000002
20
-100.25000000000003
10
138.35000000000002
20
-81.200000000000017
0
LWPOLYLINE
5
171
100
AcDbEntity
8
0
100
AcDbPolyline
90
4
70
1
43
0.0
10
176.45000000000005
20
-81.200000000000017
10
176.45000000000005
20
-100.25000000000003
10
157.40000000000003
20
-100.25000000000003
10
157.40000000000003
20
-81.200000000000017
0
LWPOLYLINE
5
172
100
AcDbEntity
8
0
100
AcDbPolyline
90
4
70
1
43
0.0
10
195.50000000000006
20
-81.200000000000017
10
195.50000000000006
20
-100.25000000000003
10
176.45000000000005
20
-100.25000000000003
10
176.45000000000005
20
-81.200000000000017
0
LWPOLYLINE
5
173
100
AcDbEntity
8
0
100
AcDbPolyline
90
4
70
1
43
0.0
10
214.55000000000007
20
-81.200000000000017
10
214.55000000000007
20
-100.25000000000003
10
195.50000000000006
20
-100.25000000000003
10
195.50000000000006
20
-81.200000000000017
0
LWPOLYLINE
5
174
100
AcDbEntity
8
0
100
AcDbPolyline
90
4
70
1
43
0.0
10
233.60000000000002
20
-81.200000000000017
10
233.60000000000002
20
-100.25000000000003
10
214.55000000000001
20
-100.25000000000003
10
214.55000000000001
20
-81.200000000000017
0
ENDSEC
0
SECTION
2
OBJECTS
0
DICTIONARY
5
C
100
AcDbDictionary
3
ACAD_GROUP
350
D
3
ACAD_MLINESTYLE
350
17
0
DICTIONARY
5
D
100
AcDbDictionary
0
DICTIONARY
5
1A
330
C
100
AcDbDictionary
0
DICTIONARY
5
17
100
AcDbDictionary
0
ENDSEC
0
EOF
