0
SECTION
2
HEADER
9
$INSUNITS
70
4
9
$ACADVER
1
AC1014
9
$HANDSEED
5
FFFF
0
ENDSEC
0
SECTION
2
TABLES
0
TABLE
2
VPORT
5
8
100
AcDbSymbolTable
0
ENDTAB
0
TABLE
2
LTYPE
5
5
100
AcDbSymbolTable
0
LTYPE
5
14
100
AcDbSymbolTableRecord
100
AcDbLinetypeTableRecord
2
BYBLOCK
70
0
0
LTYPE
5
15
100
AcDbSymbolTableRecord
100
AcDbLinetypeTableRecord
2
BYLAYER
70
0
0
ENDTAB
0
TABLE
2
LAYER
5
2
100
AcDbSymbolTable
70
2
0
LAYER
5
50
100
AcDbSymbolTableRecord
100
AcDbLayerTableRecord
2
0
70
0
6
CONTINUOUS
0
ENDTAB
0
TABLE
2
STYLE
5
3
100
AcDbSymbolTable
70
1
0
STYLE
5
11
100
AcDbSymbolTableRecord
100
AcDbTextStyleTableRecord
2
STANDARD
70
0
0
ENDTAB
0
TABLE
2
VIEW
5
6
100
AcDbSymbolTable
70
0
0
ENDTAB
0
TABLE
2
UCS
5
7
100
AcDbSymbolTable
70
0
0
ENDTAB
0
TABLE
2
APPID
5
9
100
AcDbSymbolTable
70
2
0
APPID
5
12
100
AcDbSymbolTableRecord
100
AcDbRegAppTableRecord
2
ACAD
70
0
0
ENDTAB
0
TABLE
2
DIMSTYLE
5
A
100
AcDbSymbolTable
70
1
0
ENDTAB
0
TABLE
2
BLOCK_RECORD
5
1
100
AcDbSymbolTable
70
1
0
BLOCK_RECORD
5
1F
100
AcDbSymbolTableRecord
100
AcDbBlockTableRecord
2
*MODEL_SPACE
0
BLOCK_RECORD
5
1B
100
AcDbSymbolTableRecord
100
AcDbBlockTableRecord
2
*PAPER_SPACE
0
ENDTAB
0
ENDSEC
0
SECTION
2
BLOCKS
0
BLOCK
5
20
100
AcDbEntity
100
AcDbBlockBegin
2
*MODEL_SPACE
0
ENDBLK
5
21
100
AcDbEntity
100
AcDbBlockEnd
0
BLOCK
5
1C
100
AcDbEntity
100
AcDbBlockBegin
2
*PAPER_SPACE
0
ENDBLK
5
1D
100
AcDbEntity
100
AcDbBlockEnd
0
ENDSEC
0
SECTION
2
ENTITIES
0
LWPOLYLINE
5
100
100
AcDbEntity
8
0
100
AcDbPolyline
90
20
70
1
43
0.0
10
0
20
0
10
5
20
0
10
299.25
20
0
42
-0.41421356237309503
10
300.25
20
-1.0000000000000497
10
300.25
20
-51.49999999999995
42
0.41421356237309503
10
301.25000000000006
20
-52.5
10
310.25
20
-52.5
42
0.41421356237309503
10
311.25000000000006
20
-51.499999999999943
10
311.25000000000006
20
-1.00000000000002
42
-0.41421356237309503
10
312.25000000000011
20
6.5433025752011227e-14
10
320.75
20
3.8302694349567901e-14
10
320.75
20
-4.9999999999999618
10
325.75
20
-4.9999999999999467
10
325.75
20
-100.24999999999994
10
325.75
20
-105.24999999999994
10
320.75
20
-105.24999999997696
10
4.9999999999999973
20
-105.25000000000003
10
-5.8323803809392709e-15
20
-105.25000000000003
10
-5.8323803809392709e-15
20
-100.25000000000003
10
0
20
-5
0
LINE
5
101
100
AcDbEntity
8
0
100
AcDbLine
10
5
20
0
30
0
11
5
21
-5
31
0
0
LINE
5
102
100
AcDbEntity
8
0
100
AcDbLine
10
5
20
-5
30
0
11
0
21
-5
31
0
0
LINE
5
103
100
AcDbEntity
8
0
100
AcDbLine
10
320.75
20
3.8514064459953339e-14
30
0
11
325.75
21
7.8512529123336159e-14
31
0
0
LINE
5
104
100
AcDbEntity
8
0
100
AcDbLine
10
325.75
20
7.8512529123336159e-14
30
0
11
325.75
21
-4.9999999999999467
31
0
0
LINE
5
105
100
AcDbEntity
8
0
100
AcDbLine
10
-5.8323803809392709e-15
20
-100.25000000000003
30
0
11
4.9999999999999938
21
-100.25000000000003
31
0
0
LINE
5
106
100
AcDbEntity
8
0
100
AcDbLine
10
4.9999999999999938
20
-100.25000000000003
30
0
11
4.9999999999999973
21
-105.25000000000003
31
0
0
LWPOLYLINE
5
107
100
AcDbEntity
8
0
100
AcDbPolyline
90
4
70
1
43
0.0
10
5
20
-5
10
24.050000000000004
20
-5
10
24.050000000000004
20
-24.050000000000004
10
5
20
-24.050000000000004
0
LWPOLYLINE
5
108
100
AcDbEntity
8
0
100
AcDbPolyline
90
4
70
1
43
0.0
10
43.100000000000009
20
-5
10
43.100000000000009
20
-24.050000000000004
10
24.050000000000004
20
-24.050000000000004
10
24.050000000000004
20
-5
0
LWPOLYLINE
5
109
100
AcDbEntity
8
0
100
AcDbPolyline
90
4
70
1
43
0.0
10
62.149999999999999
20
-5
10
62.149999999999999
20
-24.050000000000004
10
43.100000000000009
20
-24.050000000000004
10
43.100000000000009
20
-5
0
LWPOLYLINE
5
110
100
AcDbEntity
8
0
100
AcDbPolyline
90
4
70
1
43
0.0
10
81.200000000000017
20
-5
10
81.200000000000017
20
-24.050000000000004
10
62.149999999999999
20
-24.050000000000004
10
62.149999999999999
20
-5
0
LWPOLYLINE
5
111
100
AcDbEntity
8
0
100
AcDbPolyline
90
4
70
1
43
0.0
10
100.25
20
-5
10
100.25
20
-24.050000000000004
10
81.200000000000017
20
-24.050000000000004
10
81.200000000000017
20
-5
0
LWPOLYLINE
5
112
100
AcDbEntity
8
0
100
AcDbPolyline
90
4
70
1
43
0.0
10
119.3
20
-5
10
119.3
20
-24.050000000000004
10
100.25
20
-24.050000000000004
10
100.25
20
-5
0
LWPOLYLINE
5
113
100
AcDbEntity
8
0
100
AcDbPolyline
90
4
70
1
43
0.0
10
138.35000000000002
20
-5
10
138.35000000000002
20
-24.050000000000004
10
119.3
20
-24.050000000000004
10
119.3
20
-5
0
LWPOLYLINE
5
114
100
AcDbEntity
8
0
100
AcDbPolyline
90
4
70
1
43
0.0
10
157.40000000000003
20
-5
10
157.40000000000003
20
-24.050000000000004
10
138.35000000000002
20
-24.050000000000004
10
138.35000000000002
20
-5
0
LWPOLYLINE
5
115
100
AcDbEntity
8
0
100
AcDbPolyline
90
4
70
1
43
0.0
10
176.44999999999999
20
-5
10
176.44999999999999
20
-24.050000000000004
10
157.40000000000001
20
-24.050000000000004
10
157.40000000000001
20
-5
0
LWPOLYLINE
5
116
100
AcDbEntity
8
0
100
AcDbPolyline
90
4
70
1
43
0.0
10
195.5
20
-5
10
195.5
20
-24.050000000000004
10
176.44999999999999
20
-24.050000000000004
10
176.44999999999999
20
-5
0
LWPOLYLINE
5
117
100
AcDbEntity
8
0
100
AcDbPolyline
90
4
70
1
43
0.0
10
214.55000000000001
20
-5
10
214.55000000000001
20
-24.050000000000004
10
195.5
20
-24.050000000000004
10
195.5
20
-5
0
LWPOLYLINE
5
118
100
AcDbEntity
8
0
100
AcDbPolyline
90
4
70
1
43
0.0
10
233.60000000000002
20
-5
10
233.60000000000002
20
-24.050000000000004
10
214.55000000000001
20
-24.050000000000004
10
214.55000000000001
20
-5
0
LWPOLYLINE
5
119
100
AcDbEntity
8
0
100
AcDbPolyline
90
4
70
1
43
0.0
10
24.050000000000004
20
-24.050000000000004
10
24.050000000000004
20
-43.100000000000009
10
5
20
-43.100000000000009
10
5
20
-24.050000000000004
0
LWPOLYLINE
5
120
100
AcDbEntity
8
0
100
AcDbPolyline
90
4
70
1
43
0.0
10
43.100000000000009
20
-24.050000000000004
10
43.100000000000009
20
-43.100000000000009
10
24.050000000000004
20
-43.100000000000009
10
24.050000000000004
20
-24.050000000000004
0
LWPOLYLINE
5
121
100
AcDbEntity
8
0
100
AcDbPolyline
90
4
70
1
43
0.0
10
62.149999999999999
20
-24.050000000000004
10
62.149999999999999
20
-43.100000000000009
10
43.100000000000009
20
-43.100000000000009
10
43.100000000000009
20
-24.050000000000004
0
LWPOLYLINE
5
122
100
AcDbEntity
8
0
100
AcDbPolyline
90
4
70
1
43
0.0
10
81.200000000000017
20
-24.050000000000004
10
81.200000000000017
20
-43.100000000000009
10
62.149999999999999
20
-43.100000000000009
10
62.149999999999999
20
-24.050000000000004
0
LWPOLYLINE
5
123
100
AcDbEntity
8
0
100
AcDbPolyline
90
4
70
1
43
0.0
10
100.25
20
-24.050000000000004
10
100.25
20
-43.100000000000009
10
81.200000000000017
20
-43.100000000000009
10
81.200000000000017
20
-24.050000000000004
0
LWPOLYLINE
5
124
100
AcDbEntity
8
0
100
AcDbPolyline
90
4
70
1
43
0.0
10
119.3
20
-24.050000000000004
10
119.3
20
-43.100000000000009
10
100.25
20
-43.100000000000009
10
100.25
20
-24.050000000000004
0
LWPOLYLINE
5
125
100
AcDbEntity
8
0
100
AcDbPolyline
90
4
70
1
43
0.0
10
138.35000000000002
20
-24.050000000000004
10
138.35000000000002
20
-43.100000000000009
10
119.3
20
-43.100000000000009
10
119.3
20
-24.050000000000004
0
LWPOLYLINE
5
126
100
AcDbEntity
8
0
100
AcDbPolyline
90
4
70
1
43
0.0
10
157.40000000000003
20
-24.050000000000004
10
157.40000000000003
20
-43.100000000000009
10
138.35000000000002
20
-43.100000000000009
10
138.35000000000002
20
-24.050000000000004
0
LWPOLYLINE
5
127
100
AcDbEntity
8
0
100
AcDbPolyline
90
4
70
1
43
0.0
10
176.44999999999999
20
-24.050000000000004
10
176.44999999999999
20
-43.100000000000009
10
157.40000000000001
20
-43.100000000000009
10
157.40000000000001
20
-24.050000000000004
0
LWPOLYLINE
5
128
100
AcDbEntity
8
0
100
AcDbPolyline
90
4
70
1
43
0.0
10
195.5
20
-24.050000000000004
10
195.5
20
-43.100000000000009
10
176.44999999999999
20
-43.100000000000009
10
176.44999999999999
20
-24.050000000000004
0
LWPOLYLINE
5
129
100
AcDbEntity
8
0
100
AcDbPolyline
90
4
70
1
43
0.0
10
214.55000000000001
20
-24.050000000000004
10
214.55000000000001
20
-43.100000000000009
10
195.5
20
-43.100000000000009
10
195.5
20
-24.050000000000004
0
LWPOLYLINE
5
130
100
AcDbEntity
8
0
100
AcDbPolyline
90
4
70
1
43
0.0
10
233.60000000000002
20
-24.050000000000004
10
233.60000000000002
20
-43.100000000000009
10
214.55000000000001
20
-43.100000000000009
10
214.55000000000001
20
-24.050000000000004
0
LWPOLYLINE
5
131
100
AcDbEntity
8
0
100
AcDbPolyline
90
4
70
1
43
0.0
10
24.050000000000004
20
-43.100000000000009
10
24.050000000000004
20
-62.150000000000006
10
5
20
-62.150000000000006
10
5
20
-43.100000000000009
0
LWPOLYLINE
5
132
100
AcDbEntity
8
0
100
AcDbPolyline
90
4
70
1
43
0.0
10
43.100000000000009
20
-43.100000000000009
10
43.100000000000009
20
-62.150000000000006
10
24.050000000000004
20
-62.150000000000006
10
24.050000000000004
20
-43.100000000000009
0
LWPOLYLINE
5
133
100
AcDbEntity
8
0
100
AcDbPolyline
90
4
70
1
43
0.0
10
62.149999999999999
20
-43.100000000000009
10
62.149999999999999
20
-62.150000000000006
10
43.100000000000009
20
-62.150000000000006
10
43.100000000000009
20
-43.100000000000009
0
LWPOLYLINE
5
134
100
AcDbEntity
8
0
100
AcDbPolyline
90
4
70
1
43
0.0
10
81.200000000000017
20
-43.100000000000009
10
81.200000000000017
20
-62.150000000000006
10
62.149999999999999
20
-62.150000000000006
10
62.149999999999999
20
-43.100000000000009
0
LWPOLYLINE
5
135
100
AcDbEntity
8
0
100
AcDbPolyline
90
4
70
1
43
0.0
10
100.25
20
-43.100000000000009
10
100.25
20
-62.150000000000006
10
81.200000000000017
20
-62.150000000000006
10
81.200000000000017
20
-43.100000000000009
0
LWPOLYLINE
5
136
100
AcDbEntity
8
0
100
AcDbPolyline
90
4
70
1
43
0.0
10
119.3
20
-43.100000000000009
10
119.3
20
-62.150000000000006
10
100.25
20
-62.150000000000006
10
100.25
20
-43.100000000000009
0
LWPOLYLINE
5
137
100
AcDbEntity
8
0
100
AcDbPolyline
90
4
70
1
43
0.0
10
138.35000000000002
20
-43.100000000000009
10
138.35000000000002
20
-62.150000000000006
10
119.3
20
-62.150000000000006
10
119.3
20
-43.100000000000009
0
LWPOLYLINE
5
138
100
AcDbEntity
8
0
100
AcDbPolyline
90
4
70
1
43
0.0
10
157.40000000000003
20
-43.100000000000009
10
157.40000000000003
20
-62.150000000000006
10
138.35000000000002
20
-62.150000000000006
10
138.35000000000002
20
-43.100000000000009
0
LWPOLYLINE
5
139
100
AcDbEntity
8
0
100
AcDbPolyline
90
4
70
1
43
0.0
10
176.44999999999999
20
-43.100000000000009
10
176.44999999999999
20
-62.150000000000006
10
157.40000000000001
20
-62.150000000000006
10
157.40000000000001
20
-43.100000000000009
0
LWPOLYLINE
5
140
100
AcDbEntity
8
0
100
AcDbPolyline
90
4
70
1
43
0.0
10
195.5
20
-43.100000000000009
10
195.5
20
-62.150000000000006
10
176.44999999999999
20
-62.150000000000006
10
176.44999999999999
20
-43.100000000000009
0
LWPOLYLINE
5
141
100
AcDbEntity
8
0
100
AcDbPolyline
90
4
70
1
43
0.0
10
214.55000000000001
20
-43.100000000000009
10
214.55000000000001
20
-62.150000000000006
10
195.5
20
-62.150000000000006
10
195.5
20
-43.100000000000009
0
LWPOLYLINE
5
142
100
AcDbEntity
8
0
100
AcDbPolyline
90
4
70
1
43
0.0
10
233.60000000000002
20
-43.100000000000009
10
233.60000000000002
20
-62.150000000000006
10
214.55000000000001
20
-62.150000000000006
10
214.55000000000001
20
-43.100000000000009
0
LWPOLYLINE
5
143
100
AcDbEntity
8
0
100
AcDbPolyline
90
4
70
1
43
0.0
10
24.050000000000004
20
-62.150000000000006
10
24.050000000000004
20
-81.200000000000017
10
5
20
-81.200000000000017
10
5
20
-62.150000000000006
0
LWPOLYLINE
5
144
100
AcDbEntity
8
0
100
AcDbPolyline
90
4
70
1
43
0.0
10
43.100000000000009
20
-62.150000000000006
10
43.100000000000009
20
-81.200000000000017
10
24.050000000000004
20
-81.200000000000017
10
24.050000000000004
20
-62.150000000000006
0
LWPOLYLINE
5
145
100
AcDbEntity
8
0
100
AcDbPolyline
90
4
70
1
43
0.0
10
62.149999999999999
20
-62.150000000000006
10
62.149999999999999
20
-81.200000000000017
10
43.100000000000009
20
-81.200000000000017
10
43.100000000000009
20
-62.150000000000006
0
LWPOLYLINE
5
146
100
AcDbEntity
8
0
100
AcDbPolyline
90
4
70
1
43
0.0
10
81.200000000000017
20
-62.150000000000006
10
81.200000000000017
20
-81.200000000000017
10
62.149999999999999
20
-81.200000000000017
10
62.149999999999999
20
-62.150000000000006
0
LWPOLYLINE
5
147
100
AcDbEntity
8
0
100
AcDbPolyline
90
4
70
1
43
0.0
10
100.25
20
-62.150000000000006
10
100.25
20
-81.200000000000017
10
81.200000000000017
20
-81.200000000000017
10
81.200000000000017
20
-62.150000000000006
0
LWPOLYLINE
5
148
100
AcDbEntity
8
0
100
AcDbPolyline
90
4
70
1
43
0.0
10
119.3
20
-62.150000000000006
10
119.3
20
-81.200000000000017
10
100.25
20
-81.200000000000017
10
100.25
20
-62.150000000000006
0
LWPOLYLINE
5
149
100
AcDbEntity
8
0
100
AcDbPolyline
90
4
70
1
43
0.0
10
138.35000000000002
20
-62.150000000000006
10
138.35000000000002
20
-81.200000000000017
10
119.3
20
-81.200000000000017
10
119.3
20
-62.150000000000006
0
LWPOLYLINE
5
150
100
AcDbEntity
8
0
100
AcDbPolyline
90
4
70
1
43
0.0
10
157.40000000000003
20
-62.150000000000006
10
157.40000000000003
20
-81.200000000000017
10
138.35000000000002
20
-81.200000000000017
10
138.35000000000002
20
-62.150000000000006
0
LWPOLYLINE
5
151
100
AcDbEntity
8
0
100
AcDbPolyline
90
4
70
1
43
0.0
10
176.44999999999999
20
-62.150000000000006
10
176.44999999999999
20
-81.200000000000017
10
157.40000000000001
20
-81.200000000000017
10
157.40000000000001
20
-62.150000000000006
0
LWPOLYLINE
5
152
100
AcDbEntity
8
0
100
AcDbPolyline
90
4
70
1
43
0.0
10
195.5
20
-62.150000000000006
10
195.5
20
-81.200000000000017
10
176.44999999999999
20
-81.200000000000017
10
176.44999999999999
20
-62.150000000000006
0
LWPOLYLINE
5
153
100
AcDbEntity
8
0
100
AcDbPolyline
90
4
70
1
43
0.0
10
214.55000000000001
20
-62.150000000000006
10
214.55000000000001
20
-81.200000000000017
10
195.5
20
-81.200000000000017
10
195.5
20
-62.150000000000006
0
LWPOLYLINE
5
154
100
AcDbEntity
8
0
100
AcDbPolyline
90
4
70
1
43
0.0
10
233.60000000000002
20
-62.150000000000006
10
233.60000000000002
20
-81.200000000000017
10
214.55000000000001
20
-81.200000000000017
10
214.55000000000001
20
-62.150000000000006
0
LINE
5
155
100
AcDbEntity
8
0
100
AcDbLine
10
5
20
-5
30
0
11
24.050000000000004
21
-24.050000000000004
31
0
0
LINE
5
156
100
AcDbEntity
8
0
100
AcDbLine
10
24.050000000000004
20
-5
30
0
11
5
21
-24.050000000000004
31
0
0
LINE
5
157
100
AcDbEntity
8
0
100
AcDbLine
10
325.75
20
-100.24999999999994
30
0
11
320.75
21
-100.24999999997696
31
0
0
LINE
5
158
100
AcDbEntity
8
0
100
AcDbLine
10
320.75
20
-100.24999999997696
30
0
11
320.75
21
-105.24999999997696
31
0
0
ARC
5
159
100
AcDbEntity
8
0
100
AcDbCircle
10
320.75
20
-100.24999999999994
30
0
40
5
210
0
220
0
230
1
100
AcDbArc
50
-90
51
0
0
ARC
5
160
100
AcDbEntity
8
0
100
AcDbCircle
10
4.9999999999999938
20
-100.25000000000003
30
0
40
5
210
0
220
0
230
1
100
AcDbArc
50
180
51
270
0
ARC
5
161
100
AcDbEntity
8
0
100
AcDbCircle
10
5
20
-5
30
0
40
5
210
0
220
-0
230
1
100
AcDbArc
50
90
51
180
0
ARC
5
162
100
AcDbEntity
8
0
100
AcDbCircle
10
320.75
20
-4.9999999999999618
30
0
40
5
210
0
220
-0
230
1
100
AcDbArc
50
0
51
90
0
LWPOLYLINE
5
163
100
AcDbEntity
8
0
100
AcDbPolyline
90
4
70
1
43
0.0
10
24.050000000000004
20
-81.200000000000017
10
24.050000000000004
20
-100.25000000000003
10
5
20
-100.25000000000003
10
5
20
-81.200000000000017
0
LWPOLYLINE
5
164
100
AcDbEntity
8
0
100
AcDbPolyline
90
4
70
1
43
0.0
10
43.100000000000009
20
-81.200000000000017
10
43.100000000000009
20
-100.25000000000003
10
24.050000000000004
20
-100.25000000000003
10
24.050000000000004
20
-81.200000000000017
0
LWPOLYLINE
5
165
100
AcDbEntity
8
0
100
AcDbPolyline
90
4
70
1
43
0.0
10
62.149999999999999
20
-81.200000000000017
10
62.149999999999999
20
-100.25000000000003
10
43.100000000000009
20
-100.25000000000003
10
43.100000000000009
20
-81.200000000000017
0
LWPOLYLINE
5
166
100
AcDbEntity
8
0
100
AcDbPolyline
90
4
70
1
43
0.0
10
81.200000000000017
20
-81.200000000000017
10
81.200000000000017
20
-100.25000000000003
10
62.149999999999999
20
-100.25000000000003
10
62.149999999999999
20
-81.200000000000017
0
LWPOLYLINE
5
167
100
AcDbEntity
8
0
100
AcDbPolyline
90
4
70
1
43
0.0
10
100.25
20
-81.200000000000017
10
100.25
20
-100.25000000000003
10
81.200000000000017
20
-100.25000000000003
10
81.200000000000017
20
-81.200000000000017
0
LWPOLYLINE
5
168
100
AcDbEntity
8
0
100
AcDbPolyline
90
4
70
1
43
0.0
10
119.3
20
-81.200000000000017
10
119.3
20
-100.25000000000003
10
100.25
20
-100.25000000000003
10
100.25
20
-81.200000000000017
0
LWPOLYLINE
5
169
100
AcDbEntity
8
0
100
AcDbPolyline
90
4
70
1
43
0.0
10
138.35000000000002
20
-81.200000000000017
10
138.35000000000002
20
-100.25000000000003
10
119.3
20
-100.25000000000003
10
119.3
20
-81.200000000000017
0
LWPOLYLINE
5
170
100
AcDbEntity
8
0
100
AcDbPolyline
90
4
70
1
43
0.0
10
157.40000000000003
20
-81.200000000000017
10
157.40000000000003
20
-100.25000000000003
10
138.35000000000002
20
-100.25000000000003
10
138.35000000000002
20
-81.200000000000017
0
LWPOLYLINE
5
171
100
AcDbEntity
8
0
100
AcDbPolyline
90
4
70
1
43
0.0
10
176.44999999999999
20
-81.200000000000017
10
176.44999999999999
20
-100.25000000000003
10
157.40000000000001
20
-100.25000000000003
10
157.40000000000001
20
-81.200000000000017
0
LWPOLYLINE
5
172
100
AcDbEntity
8
0
100
AcDbPolyline
90
4
70
1
43
0.0
10
195.5
20
-81.200000000000017
10
195.5
20
-100.25000000000003
10
176.44999999999999
20
-100.25000000000003
10
176.44999999999999
20
-81.200000000000017
0
LWPOLYLINE
5
173
100
AcDbEntity
8
0
100
AcDbPolyline
90
4
70
1
43
0.0
10
214.55000000000001
20
-81.200000000000017
10
214.55000000000001
20
-100.25000000000003
10
195.5
20
-100.25000000000003
10
195.5
20
-81.200000000000017
0
LWPOLYLINE
5
174
100
AcDbEntity
8
0
100
AcDbPolyline
90
4
70
1
43
0.0
10
233.60000000000002
20
-81.200000000000017
10
233.60000000000002
20
-100.25000000000003
10
214.55000000000001
20
-100.25000000000003
10
214.55000000000001
20
-81.200000000000017
0
LWPOLYLINE
5
175
100
AcDbEntity
8
0
100
AcDbPolyline
90
8
70
1
43
0.0
10
21.025000000000006
20
-7.5250000000000004
10
8.0250000000000004
20
-7.5250000000000004
42
0.4142135623730957
10
7.5250000000000004
20
-8.0250000000000004
10
7.5249999999999995
20
-21.025000000000006
42
0.4142135623730957
10
8.0250000000000004
20
-21.525000000000002
10
21.024999999999999
20
-21.525000000000002
42
0.41421356237309764
10
21.525000000000002
20
-21.025000000000006
10
21.525000000000002
20
-8.0250000000000004
42
0.41421356237309631
0
LINE
5
176
100
AcDbEntity
8
0
100
AcDbLine
10
21.525000000000002
20
-7.5250000000000004
30
0
11
7.5249999999999995
21
-21.525000000000002
31
0
0
LINE
5
177
100
AcDbEntity
8
0
100
AcDbLine
10
7.5249999999999995
20
-7.5250000000000004
30
0
11
21.525000000000002
21
-21.525000000000002
31
0
0
LWPOLYLINE
5
178
100
AcDbEntity
8
0
100
AcDbPolyline
90
4
70
1
43
0.0
10
252.65000000000001
20
-5
10
252.65000000000001
20
-24.050000000000004
10
233.59999999999999
20
-24.050000000000004
10
233.59999999999999
20
-5
0
LWPOLYLINE
5
179
100
AcDbEntity
8
0
100
AcDbPolyline
90
4
70
1
43
0.0
10
271.70000000000005
20
-5
10
271.70000000000005
20
-24.050000000000004
10
252.65000000000001
20
-24.050000000000004
10
252.65000000000001
20
-5
0
LWPOLYLINE
5
180
100
AcDbEntity
8
0
100
AcDbPolyline
90
4
70
1
43
0.0
10
290.75
20
-5
10
290.75
20
-24.050000000000004
10
271.70000000000005
20
-24.050000000000004
10
271.70000000000005
20
-5
0
LWPOLYLINE
5
181
100
AcDbEntity
8
0
100
AcDbPolyline
90
4
70
1
43
0.0
10
252.65000000000001
20
-24.050000000000004
10
252.65000000000001
20
-43.100000000000009
10
233.59999999999999
20
-43.100000000000009
10
233.59999999999999
20
-24.050000000000004
0
LWPOLYLINE
5
182
100
AcDbEntity
8
0
100
AcDbPolyline
90
4
70
1
43
0.0
10
271.70000000000005
20
-24.050000000000004
10
271.70000000000005
20
-43.100000000000009
10
252.65000000000001
20
-43.100000000000009
10
252.65000000000001
20
-24.050000000000004
0
LWPOLYLINE
5
183
100
AcDbEntity
8
0
100
AcDbPolyline
90
4
70
1
43
0.0
10
290.75
20
-24.050000000000004
10
290.75
20
-43.100000000000009
10
271.70000000000005
20
-43.100000000000009
10
271.70000000000005
20
-24.050000000000004
0
LWPOLYLINE
5
184
100
AcDbEntity
8
0
100
AcDbPolyline
90
4
70
1
43
0.0
10
252.65000000000001
20
-43.100000000000009
10
252.65000000000001
20
-62.150000000000006
10
233.59999999999999
20
-62.150000000000006
10
233.59999999999999
20
-43.100000000000009
0
LWPOLYLINE
5
185
100
AcDbEntity
8
0
100
AcDbPolyline
90
4
70
1
43
0.0
10
271.70000000000005
20
-43.100000000000009
10
271.70000000000005
20
-62.150000000000006
10
252.65000000000001
20
-62.150000000000006
10
252.65000000000001
20
-43.100000000000009
0
LWPOLYLINE
5
186
100
AcDbEntity
8
0
100
AcDbPolyline
90
4
70
1
43
0.0
10
290.75
20
-43.100000000000009
10
290.75
20
-62.150000000000006
10
271.70000000000005
20
-62.150000000000006
10
271.70000000000005
20
-43.100000000000009
0
LWPOLYLINE
5
187
100
AcDbEntity
8
0
100
AcDbPolyline
90
4
70
1
43
0.0
10
252.65000000000001
20
-62.150000000000006
10
252.65000000000001
20
-81.200000000000017
10
233.59999999999999
20
-81.200000000000017
10
233.59999999999999
20
-62.150000000000006
0
LWPOLYLINE
5
188
100
AcDbEntity
8
0
100
AcDbPolyline
90
4
70
1
43
0.0
10
271.70000000000005
20
-62.150000000000006
10
271.70000000000005
20
-81.200000000000017
10
252.65000000000001
20
-81.200000000000017
10
252.65000000000001
20
-62.150000000000006
0
LWPOLYLINE
5
189
100
AcDbEntity
8
0
100
AcDbPolyline
90
4
70
1
43
0.0
10
290.75
20
-62.150000000000006
10
290.75
20
-81.200000000000017
10
271.70000000000005
20
-81.200000000000017
10
271.70000000000005
20
-62.150000000000006
0
LWPOLYLINE
5
190
100
AcDbEntity
8
0
100
AcDbPolyline
90
4
70
1
43
0.0
10
252.65000000000001
20
-81.200000000000017
10
252.65000000000001
20
-100.25000000000003
10
233.59999999999999
20
-100.25000000000003
10
233.59999999999999
20
-81.200000000000017
0
LWPOLYLINE
5
191
100
AcDbEntity
8
0
100
AcDbPolyline
90
4
70
1
43
0.0
10
271.70000000000005
20
-81.200000000000017
10
271.70000000000005
20
-100.25000000000003
10
252.65000000000001
20
-100.25000000000003
10
252.65000000000001
20
-81.200000000000017
0
LWPOLYLINE
5
192
100
AcDbEntity
8
0
100
AcDbPolyline
90
4
70
1
43
0.0
10
290.75
20
-81.200000000000017
10
290.75
20
-100.25000000000003
10
271.70000000000005
20
-100.25000000000003
10
271.70000000000005
20
-81.200000000000017
0
LWPOLYLINE
5
193
100
AcDbEntity
8
0
100
AcDbPolyline
90
8
70
1
43
0.0
10
7.4250000000000007
20
-8.0250000000000004
10
7.4249999999999989
20
-21.025000000000006
42
0.41421356237309559
10
8.0250000000000004
20
-21.625000000000007
10
21.024999999999999
20
-21.625
42
0.41421356237309725
10
21.625
20
-21.025000000000006
10
21.625
20
-8.0250000000000004
42
0.41421356237309176
10
21.025000000000013
20
-7.4249999999999989
10
8.0250000000000004
20
-7.4250000000000007
42
0.41421356237309559
0
LWPOLYLINE
5
194
100
AcDbEntity
8
0
100
AcDbPolyline
90
8
70
1
43
0.0
10
27.075000000000003
20
-7.4250000000000007
42
0.41421356237309775
10
26.475000000000005
20
-8.0250000000000004
10
26.475000000000001
20
-21.025000000000006
42
0.41421356237309725
10
27.075000000000003
20
-21.625000000000007
10
40.075000000000003
20
-21.625
42
0.41421356237309503
10
40.674999999999997
20
-21.025000000000006
10
40.674999999999997
20
-8.0250000000000004
42
0.41421356237308748
10
40.075000000000017
20
-7.4249999999999989
0
LWPOLYLINE
5
195
100
AcDbEntity
8
0
100
AcDbPolyline
90
8
70
1
43
0.0
10
46.125000000000007
20
-7.4250000000000007
42
0.41421356237309992
10
45.525000000000006
20
-8.0250000000000004
10
45.525000000000006
20
-21.025000000000006
42
0.41421356237309936
10
46.125000000000007
20
-21.625000000000007
10
59.125
20
-21.625
42
0.41421356237309936
10
59.725000000000009
20
-21.025000000000006
10
59.725000000000009
20
-8.0250000000000004
42
0.41421356237309176
10
59.125000000000014
20
-7.4249999999999989
0
LWPOLYLINE
5
196
100
AcDbEntity
8
0
100
AcDbPolyline
90
8
70
1
43
0.0
10
65.175000000000011
20
-7.4250000000000007
42
0.41421356237309992
10
64.575000000000003
20
-8.0250000000000004
10
64.575000000000003
20
-21.025000000000006
42
0.41421356237309936
10
65.175000000000011
20
-21.625000000000007
10
78.175000000000011
20
-21.625
42
0.41421356237309503
10
78.775000000000006
20
-21.025000000000006
10
78.775000000000006
20
-8.0250000000000004
42
0.41421356237308748
10
78.175000000000026
20
-7.4249999999999989
0
LWPOLYLINE
5
197
100
AcDbEntity
8
0
100
AcDbPolyline
90
8
70
1
43
0.0
10
84.225000000000009
20
-7.4250000000000007
42
0.41421356237310425
10
83.625
20
-8.0250000000000004
10
83.625
20
-21.025000000000006
42
0.41421356237310375
10
84.225000000000009
20
-21.625000000000007
10
97.224999999999994
20
-21.625
42
0.41421356237309503
10
97.825000000000017
20
-21.025000000000006
10
97.825000000000017
20
-8.0250000000000004
42
0.41421356237307877
10
97.225000000000037
20
-7.4249999999999989
0
LWPOLYLINE
5
198
100
AcDbEntity
8
0
100
AcDbPolyline
90
8
70
1
43
0.0
10
103.27500000000002
20
-7.4250000000000007
42
0.41421356237310425
10
102.67500000000001
20
-8.0250000000000004
10
102.67500000000001
20
-21.025000000000006
42
0.41421356237310375
10
103.27500000000002
20
-21.625000000000007
10
116.27500000000001
20
-21.625
42
0.41421356237309503
10
116.87500000000003
20
-21.025000000000006
10
116.87500000000003
20
-8.0250000000000004
42
0.41421356237307877
10
116.27500000000005
20
-7.4249999999999989
0
LWPOLYLINE
5
199
100
AcDbEntity
8
0
100
AcDbPolyline
90
8
70
1
43
0.0
10
122.32500000000002
20
-7.4250000000000007
42
0.41421356237310425
10
121.72500000000002
20
-8.0250000000000004
10
121.72500000000002
20
-21.025000000000006
42
0.41421356237310375
10
122.32500000000002
20
-21.625000000000007
10
135.32500000000002
20
-21.625
42
0.41421356237309503
10
135.92500000000001
20
-21.025000000000006
10
135.92500000000001
20
-8.0250000000000004
42
0.41421356237308748
10
135.32500000000002
20
-7.4249999999999989
0
LWPOLYLINE
5
200
100
AcDbEntity
8
0
100
AcDbPolyline
90
8
70
1
43
0.0
10
141.375
20
-7.4250000000000007
42
0.41421356237309559
10
140.77500000000001
20
-8.0250000000000004
10
140.77500000000001
20
-21.025000000000006
42
0.41421356237309503
10
141.375
20
-21.625000000000007
10
154.375
20
-21.625
42
0.41421356237310375
10
154.97500000000002
20
-21.025000000000006
10
154.97500000000002
20
-8.0250000000000004
42
0.41421356237308748
10
154.37500000000003
20
-7.4249999999999989
0
LWPOLYLINE
5
201
100
AcDbEntity
8
0
100
AcDbPolyline
90
8
70
1
43
0.0
10
160.42500000000001
20
-7.4250000000000007
42
0.41421356237309559
10
159.82500000000002
20
-8.0250000000000004
10
159.82500000000002
20
-21.025000000000006
42
0.41421356237309503
10
160.42500000000001
20
-21.625000000000007
10
173.42500000000001
20
-21.625
42
0.41421356237309503
10
174.02500000000003
20
-21.025000000000006
10
174.02500000000003
20
-8.0250000000000004
42
0.41421356237307877
10
173.42500000000004
20
-7.4249999999999989
0
LWPOLYLINE
5
202
100
AcDbEntity
8
0
100
AcDbPolyline
90
8
70
1
43
0.0
10
179.47500000000002
20
-7.4250000000000007
42
0.41421356237311291
10
178.87500000000003
20
-8.0250000000000004
10
178.87500000000003
20
-21.025000000000006
42
0.41421356237311241
10
179.47500000000002
20
-21.625000000000007
10
192.47500000000002
20
-21.625
42
0.41421356237307771
10
193.07500000000005
20
-21.025000000000006
10
193.07500000000005
20
-8.0250000000000004
42
0.41421356237306145
10
192.47500000000005
20
-7.4249999999999989
0
LWPOLYLINE
5
203
100
AcDbEntity
8
0
100
AcDbPolyline
90
8
70
1
43
0.0
10
198.52500000000003
20
-7.4250000000000007
42
0.41421356237311291
10
197.92500000000004
20
-8.0250000000000004
10
197.92500000000004
20
-21.025000000000006
42
0.41421356237311241
10
198.52500000000003
20
-21.625000000000007
10
211.52500000000003
20
-21.625
42
0.41421356237307771
10
212.12500000000006
20
-21.025000000000006
10
212.12500000000006
20
-8.0250000000000004
42
0.41421356237306145
10
211.52500000000006
20
-7.4249999999999989
0
LWPOLYLINE
5
204
100
AcDbEntity
8
0
100
AcDbPolyline
90
8
70
1
43
0.0
10
217.57499999999999
20
-7.4250000000000007
42
0.41421356237309559
10
216.97500000000002
20
-8.0250000000000004
10
216.97500000000002
20
-21.025000000000006
42
0.41421356237309503
10
217.57499999999999
20
-21.625000000000007
10
230.57500000000002
20
-21.625
42
0.41421356237309503
10
231.17500000000004
20
-21.025000000000006
10
231.17500000000004
20
-8.0250000000000004
42
0.41421356237307877
10
230.57500000000005
20
-7.4249999999999989
0
LWPOLYLINE
5
205
100
AcDbEntity
8
0
100
AcDbPolyline
90
8
70
1
43
0.0
10
236.625
20
-7.4250000000000007
42
0.41421356237311291
10
236.02500000000003
20
-8.0250000000000004
10
236.02500000000003
20
-21.025000000000006
42
0.41421356237311241
10
236.625
20
-21.625000000000007
10
249.62500000000003
20
-21.625
42
0.41421356237307771
10
250.22500000000005
20
-21.025000000000006
10
250.22500000000005
20
-8.0250000000000004
42
0.41421356237306145
10
249.62500000000006
20
-7.4249999999999989
0
LWPOLYLINE
5
206
100
AcDbEntity
8
0
100
AcDbPolyline
90
8
70
1
43
0.0
10
255.67500000000001
20
-7.4250000000000007
42
0.41421356237311291
10
255.07500000000005
20
-8.0250000000000004
10
255.07500000000005
20
-21.025000000000006
42
0.41421356237311241
10
255.67500000000001
20
-21.625000000000007
10
268.67500000000001
20
-21.625
42
0.41421356237307771
10
269.27500000000003
20
-21.025000000000006
10
269.27500000000003
20
-8.0250000000000004
42
0.41421356237306145
10
268.67500000000007
20
-7.4249999999999989
0
LWPOLYLINE
5
207
100
AcDbEntity
8
0
100
AcDbPolyline
90
8
70
1
43
0.0
10
274.72500000000002
20
-7.4250000000000007
42
0.41421356237309559
10
274.125
20
-8.0250000000000004
10
274.125
20
-21.025000000000006
42
0.41421356237309503
10
274.72500000000002
20
-21.625000000000007
10
287.72500000000002
20
-21.625
42
0.41421356237309503
10
288.32500000000005
20
-21.025000000000006
10
288.32500000000005
20
-8.0250000000000004
42
0.41421356237307877
10
287.72500000000002
20
-7.4249999999999989
0
LWPOLYLINE
5
208
100
AcDbEntity
8
0
100
AcDbPolyline
90
8
70
1
43
0.0
10
8.0250000000000004
20
-26.475000000000005
42
0.41421356237309503
10
7.4250000000000007
20
-27.075000000000003
10
7.4249999999999989
20
-40.075000000000003
42
0.41421356237309559
10
8.0250000000000004
20
-40.675000000000011
10
21.024999999999999
20
-40.674999999999997
42
0.41421356237309725
10
21.625
20
-40.075000000000003
10
21.625
20
-27.075000000000003
42
0.41421356237309287
10
21.025000000000013
20
-26.475000000000001
0
LWPOLYLINE
5
209
100
AcDbEntity
8
0
100
AcDbPolyline
90
8
70
1
43
0.0
10
27.075000000000003
20
-26.475000000000005
42
0.41421356237309725
10
26.475000000000005
20
-27.075000000000003
10
26.475000000000001
20
-40.075000000000003
42
0.41421356237309725
10
27.075000000000003
20
-40.675000000000011
10
40.075000000000003
20
-40.674999999999997
42
0.41421356237309503
10
40.674999999999997
20
-40.075000000000003
10
40.674999999999997
20
-27.075000000000003
42
0.41421356237308854
10
40.075000000000017
20
-26.475000000000001
0
LWPOLYLINE
5
210
100
AcDbEntity
8
0
100
AcDbPolyline
90
8
70
1
43
0.0
10
46.125000000000007
20
-26.475000000000005
42
0.41421356237309936
10
45.525000000000006
20
-27.075000000000003
10
45.525000000000006
20
-40.075000000000003
42
0.41421356237309936
10
46.125000000000007
20
-40.675000000000011
10
59.125
20
-40.674999999999997
42
0.41421356237309936
10
59.725000000000009
20
-40.075000000000003
10
59.725000000000009
20
-27.075000000000003
42
0.41421356237309287
10
59.125000000000014
20
-26.475000000000001
0
LWPOLYLINE
5
211
100
AcDbEntity
8
0
100
AcDbPolyline
90
8
70
1
43
0.0
10
65.175000000000011
20
-26.475000000000005
42
0.41421356237309936
10
64.575000000000003
20
-27.075000000000003
10
64.575000000000003
20
-40.075000000000003
42
0.41421356237309936
10
65.175000000000011
20
-40.675000000000011
10
78.175000000000011
20
-40.674999999999997
42
0.41421356237309503
10
78.775000000000006
20
-40.075000000000003
10
78.775000000000006
20
-27.075000000000003
42
0.41421356237308854
10
78.175000000000026
20
-26.475000000000001
0
LWPOLYLINE
5
212
100
AcDbEntity
8
0
100
AcDbPolyline
90
8
70
1
43
0.0
10
84.225000000000009
20
-26.475000000000005
42
0.41421356237310375
10
83.625
20
-27.075000000000003
10
83.625
20
-40.075000000000003
42
0.41421356237310375
10
84.225000000000009
20
-40.675000000000011
10
97.224999999999994
20
-40.674999999999997
42
0.41421356237309503
10
97.825000000000017
20
-40.075000000000003
10
97.825000000000017
20
-27.075000000000003
42
0.41421356237307988
10
97.225000000000037
20
-26.475000000000001
0
LWPOLYLINE
5
213
100
AcDbEntity
8
0
100
AcDbPolyline
90
8
70
1
43
0.0
10
103.27500000000002
20
-26.475000000000005
42
0.41421356237310375
10
102.67500000000001
20
-27.075000000000003
10
102.67500000000001
20
-40.075000000000003
42
0.41421356237310375
10
103.27500000000002
20
-40.675000000000011
10
116.27500000000001
20
-40.674999999999997
42
0.41421356237309503
10
116.87500000000003
20
-40.075000000000003
10
116.87500000000003
20
-27.075000000000003
42
0.41421356237307988
10
116.27500000000005
20
-26.475000000000001
0
LWPOLYLINE
5
214
100
AcDbEntity
8
0
100
AcDbPolyline
90
8
70
1
43
0.0
10
122.32500000000002
20
-26.475000000000005
42
0.41421356237310375
10
121.72500000000002
20
-27.075000000000003
10
121.72500000000002
20
-40.075000000000003
42
0.41421356237310375
10
122.32500000000002
20
-40.675000000000011
10
135.32500000000002
20
-40.674999999999997
42
0.41421356237309503
10
135.92500000000001
20
-40.075000000000003
10
135.92500000000001
20
-27.075000000000003
42
0.41421356237308854
10
135.32500000000002
20
-26.475000000000001
0
LWPOLYLINE
5
215
100
AcDbEntity
8
0
100
AcDbPolyline
90
8
70
1
43
0.0
10
141.375
20
-26.475000000000005
42
0.41421356237309503
10
140.77500000000001
20
-27.075000000000003
10
140.77500000000001
20
-40.075000000000003
42
0.41421356237309503
10
141.375
20
-40.675000000000011
10
154.375
20
-40.674999999999997
42
0.41421356237310375
10
154.97500000000002
20
-40.075000000000003
10
154.97500000000002
20
-27.075000000000003
42
0.41421356237308854
10
154.37500000000003
20
-26.475000000000001
0
LWPOLYLINE
5
216
100
AcDbEntity
8
0
100
AcDbPolyline
90
8
70
1
43
0.0
10
160.42500000000001
20
-26.475000000000005
42
0.41421356237309503
10
159.82500000000002
20
-27.075000000000003
10
159.82500000000002
20
-40.075000000000003
42
0.41421356237309503
10
160.42500000000001
20
-40.675000000000011
10
173.42500000000001
20
-40.674999999999997
42
0.41421356237309503
10
174.02500000000003
20
-40.075000000000003
10
174.02500000000003
20
-27.075000000000003
42
0.41421356237307988
10
173.42500000000004
20
-26.475000000000001
0
LWPOLYLINE
5
217
100
AcDbEntity
8
0
100
AcDbPolyline
90
8
70
1
43
0.0
10
179.47500000000002
20
-26.475000000000005
42
0.41421356237311241
10
178.87500000000003
20
-27.075000000000003
10
178.87500000000003
20
-40.075000000000003
42
0.41421356237311241
10
179.47500000000002
20
-40.675000000000011
10
192.47500000000002
20
-40.674999999999997
42
0.41421356237307771
10
193.07500000000005
20
-40.075000000000003
10
193.07500000000005
20
-27.075000000000003
42
0.4142135623730625
10
192.47500000000005
20
-26.475000000000001
0
LWPOLYLINE
5
218
100
AcDbEntity
8
0
100
AcDbPolyline
90
8
70
1
43
0.0
10
198.52500000000003
20
-26.475000000000005
42
0.41421356237311241
10
197.92500000000004
20
-27.075000000000003
10
197.92500000000004
20
-40.075000000000003
42
0.41421356237311241
10
198.52500000000003
20
-40.675000000000011
10
211.52500000000003
20
-40.674999999999997
42
0.41421356237307771
10
212.12500000000006
20
-40.075000000000003
10
212.12500000000006
20
-27.075000000000003
42
0.4142135623730625
10
211.52500000000006
20
-26.475000000000001
0
LWPOLYLINE
5
219
100
AcDbEntity
8
0
100
AcDbPolyline
90
8
70
1
43
0.0
10
217.57499999999999
20
-26.475000000000005
42
0.41421356237309503
10
216.97500000000002
20
-27.075000000000003
10
216.97500000000002
20
-40.075000000000003
42
0.41421356237309503
10
217.57499999999999
20
-40.675000000000011
10
230.57500000000002
20
-40.674999999999997
42
0.41421356237309503
10
231.17500000000004
20
-40.075000000000003
10
231.17500000000004
20
-27.075000000000003
42
0.41421356237307988
10
230.57500000000005
20
-26.475000000000001
0
LWPOLYLINE
5
220
100
AcDbEntity
8
0
100
AcDbPolyline
90
8
70
1
43
0.0
10
236.625
20
-26.475000000000005
42
0.41421356237311241
10
236.02500000000003
20
-27.075000000000003
10
236.02500000000003
20
-40.075000000000003
42
0.41421356237311241
10
236.625
20
-40.675000000000011
10
249.62500000000003
20
-40.674999999999997
42
0.41421356237307771
10
250.22500000000005
20
-40.075000000000003
10
250.22500000000005
20
-27.075000000000003
42
0.4142135623730625
10
249.62500000000006
20
-26.475000000000001
0
LWPOLYLINE
5
221
100
AcDbEntity
8
0
100
AcDbPolyline
90
8
70
1
43
0.0
10
255.67500000000001
20
-26.475000000000005
42
0.41421356237311241
10
255.07500000000005
20
-27.075000000000003
10
255.07500000000005
20
-40.075000000000003
42
0.41421356237311241
10
255.67500000000001
20
-40.675000000000011
10
268.67500000000001
20
-40.674999999999997
42
0.41421356237307771
10
269.27500000000003
20
-40.075000000000003
10
269.27500000000003
20
-27.075000000000003
42
0.4142135623730625
10
268.67500000000007
20
-26.475000000000001
0
LWPOLYLINE
5
222
100
AcDbEntity
8
0
100
AcDbPolyline
90
8
70
1
43
0.0
10
274.72500000000002
20
-26.475000000000005
42
0.41421356237309503
10
274.125
20
-27.075000000000003
10
274.125
20
-40.075000000000003
42
0.41421356237309503
10
274.72500000000002
20
-40.675000000000011
10
287.72500000000002
20
-40.674999999999997
42
0.41421356237309503
10
288.32500000000005
20
-40.075000000000003
10
288.32500000000005
20
-27.075000000000003
42
0.41421356237307988
10
287.72500000000002
20
-26.475000000000001
0
LWPOLYLINE
5
223
100
AcDbEntity
8
0
100
AcDbPolyline
90
8
70
1
43
0.0
10
8.0250000000000004
20
-45.525000000000006
42
0.41421356237309503
10
7.4250000000000007
20
-46.125000000000007
10
7.4249999999999989
20
-59.125000000000014
42
0.41421356237309559
10
8.0250000000000004
20
-59.725000000000009
10
21.024999999999999
20
-59.725000000000009
42
0.41421356237309725
10
21.625
20
-59.125000000000014
10
21.625
20
-46.125000000000007
42
0.41421356237309076
10
21.025000000000013
20
-45.525000000000006
0
LWPOLYLINE
5
224
100
AcDbEntity
8
0
100
AcDbPolyline
90
8
70
1
43
0.0
10
27.075000000000003
20
-45.525000000000006
42
0.41421356237309725
10
26.475000000000005
20
-46.125000000000007
10
26.475000000000001
20
-59.125000000000014
42
0.41421356237309725
10
27.075000000000003
20
-59.725000000000009
10
40.075000000000003
20
-59.725000000000009
42
0.41421356237309503
10
40.674999999999997
20
-59.125000000000014
10
40.674999999999997
20
-46.125000000000007
42
0.41421356237308637
10
40.075000000000017
20
-45.525000000000006
0
LWPOLYLINE
5
225
100
AcDbEntity
8
0
100
AcDbPolyline
90
8
70
1
43
0.0
10
46.125000000000007
20
-45.525000000000006
42
0.41421356237309936
10
45.525000000000006
20
-46.125000000000007
10
45.525000000000006
20
-59.125000000000014
42
0.41421356237309936
10
46.125000000000007
20
-59.725000000000009
10
59.125
20
-59.725000000000009
42
0.41421356237309936
10
59.725000000000009
20
-59.125000000000014
10
59.725000000000009
20
-46.125000000000007
42
0.41421356237309076
10
59.125000000000014
20
-45.525000000000006
0
LWPOLYLINE
5
226
100
AcDbEntity
8
0
100
AcDbPolyline
90
8
70
1
43
0.0
10
65.175000000000011
20
-45.525000000000006
42
0.41421356237309936
10
64.575000000000003
20
-46.125000000000007
10
64.575000000000003
20
-59.125000000000014
42
0.41421356237309936
10
65.175000000000011
20
-59.725000000000009
10
78.175000000000011
20
-59.725000000000009
42
0.41421356237309503
10
78.775000000000006
20
-59.125000000000014
10
78.775000000000006
20
-46.125000000000007
42
0.41421356237308637
10
78.175000000000026
20
-45.525000000000006
0
LWPOLYLINE
5
227
100
AcDbEntity
8
0
100
AcDbPolyline
90
8
70
1
43
0.0
10
84.225000000000009
20
-45.525000000000006
42
0.41421356237310375
10
83.625
20
-46.125000000000007
10
83.625
20
-59.125000000000014
42
0.41421356237310375
10
84.225000000000009
20
-59.725000000000009
10
97.224999999999994
20
-59.725000000000009
42
0.41421356237309503
10
97.825000000000017
20
-59.125000000000014
10
97.825000000000017
20
-46.125000000000007
42
0.41421356237307771
10
97.225000000000037
20
-45.525000000000006
0
LWPOLYLINE
5
228
100
AcDbEntity
8
0
100
AcDbPolyline
90
8
70
1
43
0.0
10
103.27500000000002
20
-45.525000000000006
42
0.41421356237310375
10
102.67500000000001
20
-46.125000000000007
10
102.67500000000001
20
-59.125000000000014
42
0.41421356237310375
10
103.27500000000002
20
-59.725000000000009
10
116.27500000000001
20
-59.725000000000009
42
0.41421356237309503
10
116.87500000000003
20
-59.125000000000014
10
116.87500000000003
20
-46.125000000000007
42
0.41421356237307771
10
116.27500000000005
20
-45.525000000000006
0
LWPOLYLINE
5
229
100
AcDbEntity
8
0
100
AcDbPolyline
90
8
70
1
43
0.0
10
122.32500000000002
20
-45.525000000000006
42
0.41421356237310375
10
121.72500000000002
20
-46.125000000000007
10
121.72500000000002
20
-59.125000000000014
42
0.41421356237310375
10
122.32500000000002
20
-59.725000000000009
10
135.32500000000002
20
-59.725000000000009
42
0.41421356237309503
10
135.92500000000001
20
-59.125000000000014
10
135.92500000000001
20
-46.125000000000007
42
0.41421356237308637
10
135.32500000000002
20
-45.525000000000006
0
LWPOLYLINE
5
230
100
AcDbEntity
8
0
100
AcDbPolyline
90
8
70
1
43
0.0
10
141.375
20
-45.525000000000006
42
0.41421356237309503
10
140.77500000000001
20
-46.125000000000007
10
140.77500000000001
20
-59.125000000000014
42
0.41421356237309503
10
141.375
20
-59.725000000000009
10
154.375
20
-59.725000000000009
42
0.41421356237310375
10
154.97500000000002
20
-59.125000000000014
10
154.97500000000002
20
-46.125000000000007
42
0.41421356237308637
10
154.37500000000003
20
-45.525000000000006
0
LWPOLYLINE
5
231
100
AcDbEntity
8
0
100
AcDbPolyline
90
8
70
1
43
0.0
10
160.42500000000001
20
-45.525000000000006
42
0.41421356237309503
10
159.82500000000002
20
-46.125000000000007
10
159.82500000000002
20
-59.125000000000014
42
0.41421356237309503
10
160.42500000000001
20
-59.725000000000009
10
173.42500000000001
20
-59.725000000000009
42
0.41421356237309503
10
174.02500000000003
20
-59.125000000000014
10
174.02500000000003
20
-46.125000000000007
42
0.41421356237307771
10
173.42500000000004
20
-45.525000000000006
0
LWPOLYLINE
5
232
100
AcDbEntity
8
0
100
AcDbPolyline
90
8
70
1
43
0.0
10
179.47500000000002
20
-45.525000000000006
42
0.41421356237311241
10
178.87500000000003
20
-46.125000000000007
10
178.87500000000003
20
-59.125000000000014
42
0.41421356237311241
10
179.47500000000002
20
-59.725000000000009
10
192.47500000000002
20
-59.725000000000009
42
0.41421356237307771
10
193.07500000000005
20
-59.125000000000014
10
193.07500000000005
20
-46.125000000000007
42
0.41421356237306034
10
192.47500000000005
20
-45.525000000000006
0
LWPOLYLINE
5
233
100
AcDbEntity
8
0
100
AcDbPolyline
90
8
70
1
43
0.0
10
198.52500000000003
20
-45.525000000000006
42
0.41421356237311241
10
197.92500000000004
20
-46.125000000000007
10
197.92500000000004
20
-59.125000000000014
42
0.41421356237311241
10
198.52500000000003
20
-59.725000000000009
10
211.52500000000003
20
-59.725000000000009
42
0.41421356237307771
10
212.12500000000006
20
-59.125000000000014
10
212.12500000000006
20
-46.125000000000007
42
0.41421356237306034
10
211.52500000000006
20
-45.525000000000006
0
LWPOLYLINE
5
234
100
AcDbEntity
8
0
100
AcDbPolyline
90
8
70
1
43
0.0
10
217.57499999999999
20
-45.525000000000006
42
0.41421356237309503
10
216.97500000000002
20
-46.125000000000007
10
216.97500000000002
20
-59.125000000000014
42
0.41421356237309503
10
217.57499999999999
20
-59.725000000000009
10
230.57500000000002
20
-59.725000000000009
42
0.41421356237309503
10
231.17500000000004
20
-59.125000000000014
10
231.17500000000004
20
-46.125000000000007
42
0.41421356237307771
10
230.57500000000005
20
-45.525000000000006
0
LWPOLYLINE
5
235
100
AcDbEntity
8
0
100
AcDbPolyline
90
8
70
1
43
0.0
10
236.625
20
-45.525000000000006
42
0.41421356237311241
10
236.02500000000003
20
-46.125000000000007
10
236.02500000000003
20
-59.125000000000014
42
0.41421356237311241
10
236.625
20
-59.725000000000009
10
249.62500000000003
20
-59.725000000000009
42
0.41421356237307771
10
250.22500000000005
20
-59.125000000000014
10
250.22500000000005
20
-46.125000000000007
42
0.41421356237306034
10
249.62500000000006
20
-45.525000000000006
0
LWPOLYLINE
5
236
100
AcDbEntity
8
0
100
AcDbPolyline
90
8
70
1
43
0.0
10
255.67500000000001
20
-45.525000000000006
42
0.41421356237311241
10
255.07500000000005
20
-46.125000000000007
10
255.07500000000005
20
-59.125000000000014
42
0.41421356237311241
10
255.67500000000001
20
-59.725000000000009
10
268.67500000000001
20
-59.725000000000009
42
0.41421356237307771
10
269.27500000000003
20
-59.125000000000014
10
269.27500000000003
20
-46.125000000000007
42
0.41421356237306034
10
268.67500000000007
20
-45.525000000000006
0
LWPOLYLINE
5
237
100
AcDbEntity
8
0
100
AcDbPolyline
90
8
70
1
43
0.0
10
274.72500000000002
20
-45.525000000000006
42
0.41421356237309503
10
274.125
20
-46.125000000000007
10
274.125
20
-59.125000000000014
42
0.41421356237309503
10
274.72500000000002
20
-59.725000000000009
10
287.72500000000002
20
-59.725000000000009
42
0.41421356237309503
10
288.32500000000005
20
-59.125000000000014
10
288.32500000000005
20
-46.125000000000007
42
0.41421356237307771
10
287.72500000000002
20
-45.525000000000006
0
LWPOLYLINE
5
238
100
AcDbEntity
8
0
100
AcDbPolyline
90
8
70
1
43
0.0
10
8.0250000000000004
20
-64.575000000000003
42
0.41421356237309503
10
7.4250000000000007
20
-65.175000000000011
10
7.4249999999999989
20
-78.175000000000011
42
0.41421356237309559
10
8.0250000000000004
20
-78.775000000000006
10
21.024999999999999
20
-78.775000000000006
42
0.41421356237309725
10
21.625
20
-78.175000000000011
10
21.625
20
-65.175000000000011
42
0.41421356237309503
10
21.025000000000013
20
-64.575000000000003
0
LWPOLYLINE
5
239
100
AcDbEntity
8
0
100
AcDbPolyline
90
8
70
1
43
0.0
10
27.075000000000003
20
-64.575000000000003
42
0.41421356237309725
10
26.475000000000005
20
-65.175000000000011
10
26.475000000000001
20
-78.175000000000011
42
0.41421356237309725
10
27.075000000000003
20
-78.775000000000006
10
40.075000000000003
20
-78.775000000000006
42
0.41421356237309503
10
40.674999999999997
20
-78.175000000000011
10
40.674999999999997
20
-65.175000000000011
42
0.41421356237309076
10
40.075000000000017
20
-64.575000000000003
0
LWPOLYLINE
5
240
100
AcDbEntity
8
0
100
AcDbPolyline
90
8
70
1
43
0.0
10
46.125000000000007
20
-64.575000000000003
42
0.41421356237309936
10
45.525000000000006
20
-65.175000000000011
10
45.525000000000006
20
-78.175000000000011
42
0.41421356237309936
10
46.125000000000007
20
-78.775000000000006
10
59.125
20
-78.775000000000006
42
0.41421356237309936
10
59.725000000000009
20
-78.175000000000011
10
59.725000000000009
20
-65.175000000000011
42
0.41421356237309503
10
59.125000000000014
20
-64.575000000000003
0
LWPOLYLINE
5
241
100
AcDbEntity
8
0
100
AcDbPolyline
90
8
70
1
43
0.0
10
65.175000000000011
20
-64.575000000000003
42
0.41421356237309936
10
64.575000000000003
20
-65.175000000000011
10
64.575000000000003
20
-78.175000000000011
42
0.41421356237309936
10
65.175000000000011
20
-78.775000000000006
10
78.175000000000011
20
-78.775000000000006
42
0.41421356237309503
10
78.775000000000006
20
-78.175000000000011
10
78.775000000000006
20
-65.175000000000011
42
0.41421356237309076
10
78.175000000000026
20
-64.575000000000003
0
LWPOLYLINE
5
242
100
AcDbEntity
8
0
100
AcDbPolyline
90
8
70
1
43
0.0
10
84.225000000000009
20
-64.575000000000003
42
0.41421356237310375
10
83.625
20
-65.175000000000011
10
83.625
20
-78.175000000000011
42
0.41421356237310375
10
84.225000000000009
20
-78.775000000000006
10
97.224999999999994
20
-78.775000000000006
42
0.41421356237309503
10
97.825000000000017
20
-78.175000000000011
10
97.825000000000017
20
-65.175000000000011
42
0.41421356237308204
10
97.225000000000037
20
-64.575000000000003
0
LWPOLYLINE
5
243
100
AcDbEntity
8
0
100
AcDbPolyline
90
8
70
1
43
0.0
10
103.27500000000002
20
-64.575000000000003
42
0.41421356237310375
10
102.67500000000001
20
-65.175000000000011
10
102.67500000000001
20
-78.175000000000011
42
0.41421356237310375
10
103.27500000000002
20
-78.775000000000006
10
116.27500000000001
20
-78.775000000000006
42
0.41421356237309503
10
116.87500000000003
20
-78.175000000000011
10
116.87500000000003
20
-65.175000000000011
42
0.41421356237308204
10
116.27500000000005
20
-64.575000000000003
0
LWPOLYLINE
5
244
100
AcDbEntity
8
0
100
AcDbPolyline
90
8
70
1
43
0.0
10
122.32500000000002
20
-64.575000000000003
42
0.41421356237310375
10
121.72500000000002
20
-65.175000000000011
10
121.72500000000002
20
-78.175000000000011
42
0.41421356237310375
10
122.32500000000002
20
-78.775000000000006
10
135.32500000000002
20
-78.775000000000006
42
0.41421356237309503
10
135.92500000000001
20
-78.175000000000011
10
135.92500000000001
20
-65.175000000000011
42
0.41421356237309076
10
135.32500000000002
20
-64.575000000000003
0
LWPOLYLINE
5
245
100
AcDbEntity
8
0
100
AcDbPolyline
90
8
70
1
43
0.0
10
141.375
20
-64.575000000000003
42
0.41421356237309503
10
140.77500000000001
20
-65.175000000000011
10
140.77500000000001
20
-78.175000000000011
42
0.41421356237309503
10
141.375
20
-78.775000000000006
10
154.375
20
-78.775000000000006
42
0.41421356237310375
10
154.97500000000002
20
-78.175000000000011
10
154.97500000000002
20
-65.175000000000011
42
0.41421356237309076
10
154.37500000000003
20
-64.575000000000003
0
LWPOLYLINE
5
246
100
AcDbEntity
8
0
100
AcDbPolyline
90
8
70
1
43
0.0
10
160.42500000000001
20
-64.575000000000003
42
0.41421356237309503
10
159.82500000000002
20
-65.175000000000011
10
159.82500000000002
20
-78.175000000000011
42
0.41421356237309503
10
160.42500000000001
20
-78.775000000000006
10
173.42500000000001
20
-78.775000000000006
42
0.41421356237309503
10
174.02500000000003
20
-78.175000000000011
10
174.02500000000003
20
-65.175000000000011
42
0.41421356237308204
10
173.42500000000004
20
-64.575000000000003
0
LWPOLYLINE
5
247
100
AcDbEntity
8
0
100
AcDbPolyline
90
8
70
1
43
0.0
10
179.47500000000002
20
-64.575000000000003
42
0.41421356237311241
10
178.87500000000003
20
-65.175000000000011
10
178.87500000000003
20
-78.175000000000011
42
0.41421356237311241
10
179.47500000000002
20
-78.775000000000006
10
192.47500000000002
20
-78.775000000000006
42
0.41421356237307771
10
193.07500000000005
20
-78.175000000000011
10
193.07500000000005
20
-65.175000000000011
42
0.41421356237306473
10
192.47500000000005
20
-64.575000000000003
0
LWPOLYLINE
5
248
100
AcDbEntity
8
0
100
AcDbPolyline
90
8
70
1
43
0.0
10
198.52500000000003
20
-64.575000000000003
42
0.41421356237311241
10
197.92500000000004
20
-65.175000000000011
10
197.92500000000004
20
-78.175000000000011
42
0.41421356237311241
10
198.52500000000003
20
-78.775000000000006
10
211.52500000000003
20
-78.775000000000006
42
0.41421356237307771
10
212.12500000000006
20
-78.175000000000011
10
212.12500000000006
20
-65.175000000000011
42
0.41421356237306473
10
211.52500000000006
20
-64.575000000000003
0
LWPOLYLINE
5
249
100
AcDbEntity
8
0
100
AcDbPolyline
90
8
70
1
43
0.0
10
217.57499999999999
20
-64.575000000000003
42
0.41421356237309503
10
216.97500000000002
20
-65.175000000000011
10
216.97500000000002
20
-78.175000000000011
42
0.41421356237309503
10
217.57499999999999
20
-78.775000000000006
10
230.57500000000002
20
-78.775000000000006
42
0.41421356237309503
10
231.17500000000004
20
-78.175000000000011
10
231.17500000000004
20
-65.175000000000011
42
0.41421356237308204
10
230.57500000000005
20
-64.575000000000003
0
LWPOLYLINE
5
250
100
AcDbEntity
8
0
100
AcDbPolyline
90
8
70
1
43
0.0
10
236.625
20
-64.575000000000003
42
0.41421356237311241
10
236.02500000000003
20
-65.175000000000011
10
236.02500000000003
20
-78.175000000000011
42
0.41421356237311241
10
236.625
20
-78.775000000000006
10
249.62500000000003
20
-78.775000000000006
42
0.41421356237307771
10
250.22500000000005
20
-78.175000000000011
10
250.22500000000005
20
-65.175000000000011
42
0.41421356237306473
10
249.62500000000006
20
-64.575000000000003
0
LWPOLYLINE
5
251
100
AcDbEntity
8
0
100
AcDbPolyline
90
8
70
1
43
0.0
10
255.67500000000001
20
-64.575000000000003
42
0.41421356237311241
10
255.07500000000005
20
-65.175000000000011
10
255.07500000000005
20
-78.175000000000011
42
0.41421356237311241
10
255.67500000000001
20
-78.775000000000006
10
268.67500000000001
20
-78.775000000000006
42
0.41421356237307771
10
269.27500000000003
20
-78.175000000000011
10
269.27500000000003
20
-65.175000000000011
42
0.41421356237306473
10
268.67500000000007
20
-64.575000000000003
0
LWPOLYLINE
5
252
100
AcDbEntity
8
0
100
AcDbPolyline
90
8
70
1
43
0.0
10
274.72500000000002
20
-64.575000000000003
42
0.41421356237309503
10
274.125
20
-65.175000000000011
10
274.125
20
-78.175000000000011
42
0.41421356237309503
10
274.72500000000002
20
-78.775000000000006
10
287.72500000000002
20
-78.775000000000006
42
0.41421356237309503
10
288.32500000000005
20
-78.175000000000011
10
288.32500000000005
20
-65.175000000000011
42
0.41421356237308204
10
287.72500000000002
20
-64.575000000000003
0
LWPOLYLINE
5
253
100
AcDbEntity
8
0
100
AcDbPolyline
90
8
70
1
43
0.0
10
8.0250000000000004
20
-83.625
42
0.41421356237309503
10
7.4250000000000007
20
-84.225000000000009
10
7.4249999999999989
20
-97.225000000000023
42
0.41421356237309559
10
8.0250000000000004
20
-97.825000000000017
10
21.024999999999999
20
-97.825000000000017
42
0.41421356237309725
10
21.625
20
-97.225000000000023
10
21.625
20
-84.225000000000009
42
0.41421356237309076
10
21.025000000000013
20
-83.625
0
LWPOLYLINE
5
254
100
AcDbEntity
8
0
100
AcDbPolyline
90
8
70
1
43
0.0
10
27.075000000000003
20
-83.625
42
0.41421356237309725
10
26.475000000000005
20
-84.225000000000009
10
26.475000000000001
20
-97.225000000000023
42
0.41421356237309725
10
27.075000000000003
20
-97.825000000000017
10
40.075000000000003
20
-97.825000000000017
42
0.41421356237309503
10
40.674999999999997
20
-97.225000000000023
10
40.674999999999997
20
-84.225000000000009
42
0.41421356237308637
10
40.075000000000017
20
-83.625
0
LWPOLYLINE
5
255
100
AcDbEntity
8
0
100
AcDbPolyline
90
8
70
1
43
0.0
10
46.125000000000007
20
-83.625
42
0.41421356237309936
10
45.525000000000006
20
-84.225000000000009
10
45.525000000000006
20
-97.225000000000023
42
0.41421356237309936
10
46.125000000000007
20
-97.825000000000017
10
59.125
20
-97.825000000000017
42
0.41421356237309936
10
59.725000000000009
20
-97.225000000000023
10
59.725000000000009
20
-84.225000000000009
42
0.41421356237309076
10
59.125000000000014
20
-83.625
0
LWPOLYLINE
5
256
100
AcDbEntity
8
0
100
AcDbPolyline
90
8
70
1
43
0.0
10
65.175000000000011
20
-83.625
42
0.41421356237309936
10
64.575000000000003
20
-84.225000000000009
10
64.575000000000003
20
-97.225000000000023
42
0.41421356237309936
10
65.175000000000011
20
-97.825000000000017
10
78.175000000000011
20
-97.825000000000017
42
0.41421356237309503
10
78.775000000000006
20
-97.225000000000023
10
78.775000000000006
20
-84.225000000000009
42
0.41421356237308637
10
78.175000000000026
20
-83.625
0
LWPOLYLINE
5
257
100
AcDbEntity
8
0
100
AcDbPolyline
90
8
70
1
43
0.0
10
84.225000000000009
20
-83.625
42
0.41421356237310375
10
83.625
20
-84.225000000000009
10
83.625
20
-97.225000000000023
42
0.41421356237310375
10
84.225000000000009
20
-97.825000000000017
10
97.224999999999994
20
-97.825000000000017
42
0.41421356237309503
10
97.825000000000017
20
-97.225000000000023
10
97.825000000000017
20
-84.225000000000009
42
0.41421356237307771
10
97.225000000000037
20
-83.625
0
LWPOLYLINE
5
258
100
AcDbEntity
8
0
100
AcDbPolyline
90
8
70
1
43
0.0
10
103.27500000000002
20
-83.625
42
0.41421356237310375
10
102.67500000000001
20
-84.225000000000009
10
102.67500000000001
20
-97.225000000000023
42
0.41421356237310375
10
103.27500000000002
20
-97.825000000000017
10
116.27500000000001
20
-97.825000000000017
42
0.41421356237309503
10
116.87500000000003
20
-97.225000000000023
10
116.87500000000003
20
-84.225000000000009
42
0.41421356237307771
10
116.27500000000005
20
-83.625
0
LWPOLYLINE
5
259
100
AcDbEntity
8
0
100
AcDbPolyline
90
8
70
1
43
0.0
10
122.32500000000002
20
-83.625
42
0.41421356237310375
10
121.72500000000002
20
-84.225000000000009
10
121.72500000000002
20
-97.225000000000023
42
0.41421356237310375
10
122.32500000000002
20
-97.825000000000017
10
135.32500000000002
20
-97.825000000000017
42
0.41421356237309503
10
135.92500000000001
20
-97.225000000000023
10
135.92500000000001
20
-84.225000000000009
42
0.41421356237308637
10
135.32500000000002
20
-83.625
0
LWPOLYLINE
5
260
100
AcDbEntity
8
0
100
AcDbPolyline
90
8
70
1
43
0.0
10
141.375
20
-83.625
42
0.41421356237309503
10
140.77500000000001
20
-84.225000000000009
10
140.77500000000001
20
-97.225000000000023
42
0.41421356237309503
10
141.375
20
-97.825000000000017
10
154.375
20
-97.825000000000017
42
0.41421356237310375
10
154.97500000000002
20
-97.225000000000023
10
154.97500000000002
20
-84.225000000000009
42
0.41421356237308637
10
154.37500000000003
20
-83.625
0
LWPOLYLINE
5
261
100
AcDbEntity
8
0
100
AcDbPolyline
90
8
70
1
43
0.0
10
160.42500000000001
20
-83.625
42
0.41421356237309503
10
159.82500000000002
20
-84.225000000000009
10
159.82500000000002
20
-97.225000000000023
42
0.41421356237309503
10
160.42500000000001
20
-97.825000000000017
10
173.42500000000001
20
-97.825000000000017
42
0.41421356237309503
10
174.02500000000003
20
-97.225000000000023
10
174.02500000000003
20
-84.225000000000009
42
0.41421356237307771
10
173.42500000000004
20
-83.625
0
LWPOLYLINE
5
262
100
AcDbEntity
8
0
100
AcDbPolyline
90
8
70
1
43
0.0
10
179.47500000000002
20
-83.625
42
0.41421356237311241
10
178.87500000000003
20
-84.225000000000009
10
178.87500000000003
20
-97.225000000000023
42
0.41421356237311241
10
179.47500000000002
20
-97.825000000000017
10
192.47500000000002
20
-97.825000000000017
42
0.41421356237307771
10
193.07500000000005
20
-97.225000000000023
10
193.07500000000005
20
-84.225000000000009
42
0.41421356237306034
10
192.47500000000005
20
-83.625
0
LWPOLYLINE
5
263
100
AcDbEntity
8
0
100
AcDbPolyline
90
8
70
1
43
0.0
10
198.52500000000003
20
-83.625
42
0.41421356237311241
10
197.92500000000004
20
-84.225000000000009
10
197.92500000000004
20
-97.225000000000023
42
0.41421356237311241
10
198.52500000000003
20
-97.825000000000017
10
211.52500000000003
20
-97.825000000000017
42
0.41421356237307771
10
212.12500000000006
20
-97.225000000000023
10
212.12500000000006
20
-84.225000000000009
42
0.41421356237306034
10
211.52500000000006
20
-83.625
0
LWPOLYLINE
5
264
100
AcDbEntity
8
0
100
AcDbPolyline
90
8
70
1
43
0.0
10
217.57499999999999
20
-83.625
42
0.41421356237309503
10
216.97500000000002
20
-84.225000000000009
10
216.97500000000002
20
-97.225000000000023
42
0.41421356237309503
10
217.57499999999999
20
-97.825000000000017
10
230.57500000000002
20
-97.825000000000017
42
0.41421356237309503
10
231.17500000000004
20
-97.225000000000023
10
231.17500000000004
20
-84.225000000000009
42
0.41421356237307771
10
230.57500000000005
20
-83.625
0
LWPOLYLINE
5
265
100
AcDbEntity
8
0
100
AcDbPolyline
90
8
70
1
43
0.0
10
236.625
20
-83.625
42
0.41421356237311241
10
236.02500000000003
20
-84.225000000000009
10
236.02500000000003
20
-97.225000000000023
42
0.41421356237311241
10
236.625
20
-97.825000000000017
10
249.62500000000003
20
-97.825000000000017
42
0.41421356237307771
10
250.22500000000005
20
-97.225000000000023
10
250.22500000000005
20
-84.225000000000009
42
0.41421356237306034
10
249.62500000000006
20
-83.625
0
LWPOLYLINE
5
266
100
AcDbEntity
8
0
100
AcDbPolyline
90
8
70
1
43
0.0
10
255.67500000000001
20
-83.625
42
0.41421356237311241
10
255.07500000000005
20
-84.225000000000009
10
255.07500000000005
20
-97.225000000000023
42
0.41421356237311241
10
255.67500000000001
20
-97.825000000000017
10
268.67500000000001
20
-97.825000000000017
42
0.41421356237307771
10
269.27500000000003
20
-97.225000000000023
10
269.27500000000003
20
-84.225000000000009
42
0.41421356237306034
10
268.67500000000007
20
-83.625
0
LWPOLYLINE
5
267
100
AcDbEntity
8
0
100
AcDbPolyline
90
8
70
1
43
0.0
10
274.72500000000002
20
-83.625
42
0.41421356237309503
10
274.125
20
-84.225000000000009
10
274.125
20
-97.225000000000023
42
0.41421356237309503
10
274.72500000000002
20
-97.825000000000017
10
287.72500000000002
20
-97.825000000000017
42
0.41421356237309503
10
288.32500000000005
20
-97.225000000000023
10
288.32500000000005
20
-84.225000000000009
42
0.41421356237307771
10
287.72500000000002
20
-83.625
0
ENDSEC
0
SECTION
2
OBJECTS
0
DICTIONARY
5
C
100
AcDbDictionary
3
ACAD_GROUP
350
D
3
ACAD_MLINESTYLE
350
17
0
DICTIONARY
5
D
100
AcDbDictionary
0
DICTIONARY
5
1A
330
C
100
AcDbDictionary
0
DICTIONARY
5
17
100
AcDbDictionary
0
ENDSEC
0
EOF
